<?xml version="1.0" encoding="utf-8"?>
<svg viewBox="-9.845 97.741 519.149 20.67" id="we-build-svg" style="display:none" xmlns="http://www.w3.org/2000/svg">
  
  <clipPath id="we-build">
    <path stroke="#000" stroke-width="16" d="M 78.115 97.821 C 77.895 97.948 77.602 98.294 77.235 98.861 C 76.875 99.428 76.465 100.134 76.005 100.981 C 75.552 101.828 75.065 102.784 74.545 103.851 C 74.025 104.918 73.502 106.014 72.975 107.141 C 72.448 108.274 71.928 109.408 71.415 110.541 C 70.902 111.668 70.432 112.718 70.005 113.691 C 69.578 114.671 69.205 115.538 68.885 116.291 C 68.565 117.051 68.325 117.621 68.165 118.001 L 63.405 118.001 C 62.785 116.121 62.152 114.261 61.505 112.421 C 60.858 110.581 60.188 108.731 59.495 106.871 C 58.762 108.711 58.072 110.558 57.425 112.411 C 56.778 114.258 56.155 116.121 55.555 118.001 L 50.795 118.001 C 50.635 117.621 50.388 117.051 50.055 116.291 C 49.728 115.538 49.352 114.671 48.925 113.691 C 48.498 112.718 48.035 111.671 47.535 110.551 C 47.028 109.431 46.512 108.304 45.985 107.171 C 45.458 106.044 44.935 104.948 44.415 103.881 C 43.895 102.814 43.408 101.858 42.955 101.011 C 42.495 100.158 42.082 99.451 41.715 98.891 C 41.355 98.324 41.065 97.978 40.845 97.851 C 41.845 97.851 42.842 97.854 43.835 97.861 C 44.828 97.868 45.828 97.864 46.835 97.851 C 46.782 97.884 46.748 97.944 46.735 98.031 C 46.728 98.111 46.725 98.178 46.725 98.231 C 46.725 98.631 46.848 99.228 47.095 100.021 C 47.342 100.814 47.662 101.708 48.055 102.701 C 48.442 103.694 48.878 104.744 49.365 105.851 C 49.845 106.951 50.318 108.001 50.785 109.001 C 51.252 110.008 51.678 110.914 52.065 111.721 C 52.458 112.534 52.765 113.151 52.985 113.571 C 53.805 111.584 54.595 109.588 55.355 107.581 C 56.108 105.574 56.785 103.534 57.385 101.461 C 57.298 101.261 57.172 100.978 57.005 100.611 C 56.838 100.244 56.662 99.881 56.475 99.521 C 56.282 99.154 56.075 98.811 55.855 98.491 C 55.635 98.171 55.425 97.948 55.225 97.821 L 61.275 97.821 C 61.182 97.894 61.132 97.981 61.125 98.081 C 61.112 98.181 61.105 98.278 61.105 98.371 C 61.105 98.804 61.202 99.414 61.395 100.201 C 61.588 100.981 61.828 101.848 62.115 102.801 C 62.408 103.748 62.742 104.741 63.115 105.781 C 63.488 106.821 63.858 107.824 64.225 108.791 C 64.592 109.751 64.928 110.634 65.235 111.441 C 65.548 112.241 65.805 112.868 66.005 113.321 C 66.205 112.908 66.498 112.304 66.885 111.511 C 67.278 110.718 67.705 109.824 68.165 108.831 C 68.618 107.838 69.085 106.798 69.565 105.711 C 70.052 104.624 70.492 103.594 70.885 102.621 C 71.278 101.648 71.602 100.768 71.855 99.981 C 72.108 99.194 72.235 98.611 72.235 98.231 C 72.235 98.158 72.232 98.081 72.225 98.001 C 72.212 97.914 72.168 97.854 72.095 97.821 C 74.102 97.854 76.108 97.854 78.115 97.821 ZM 83.716 118.411 C 82.823 118.411 81.876 118.291 80.876 118.051 C 79.869 117.818 78.943 117.451 78.096 116.951 C 77.249 116.451 76.546 115.818 75.986 115.051 C 75.433 114.284 75.156 113.371 75.156 112.311 C 75.156 111.018 75.413 109.861 75.926 108.841 C 76.433 107.821 77.116 106.961 77.976 106.261 C 78.829 105.554 79.823 105.014 80.956 104.641 C 82.083 104.268 83.266 104.081 84.506 104.081 C 85.493 104.081 86.369 104.241 87.136 104.561 C 87.903 104.881 88.539 105.328 89.046 105.901 C 89.559 106.474 89.946 107.154 90.206 107.941 C 90.473 108.721 90.606 109.588 90.606 110.541 C 90.606 111.448 90.469 112.321 90.196 113.161 L 78.796 113.161 C 78.976 113.708 79.263 114.154 79.656 114.501 C 80.049 114.848 80.496 115.118 80.996 115.311 C 81.496 115.498 82.023 115.628 82.576 115.701 C 83.136 115.774 83.663 115.811 84.156 115.811 C 84.463 115.811 84.876 115.788 85.396 115.741 C 85.916 115.701 86.449 115.631 86.996 115.531 C 87.543 115.424 88.059 115.301 88.546 115.161 C 89.026 115.014 89.386 114.831 89.626 114.611 L 90.966 116.961 C 89.759 117.414 88.573 117.771 87.406 118.031 C 86.239 118.284 85.009 118.411 83.716 118.411 Z M 83.716 106.651 C 83.169 106.651 82.626 106.761 82.086 106.981 C 81.553 107.201 81.066 107.488 80.626 107.841 C 80.186 108.194 79.803 108.614 79.476 109.101 C 79.149 109.581 78.913 110.078 78.766 110.591 L 86.586 110.591 C 86.639 110.044 86.643 109.528 86.596 109.041 C 86.556 108.561 86.436 108.144 86.236 107.791 C 86.029 107.431 85.726 107.151 85.326 106.951 C 84.926 106.751 84.389 106.651 83.716 106.651 ZM 116.254 108.321 C 116.814 108.521 117.388 108.748 117.974 109.001 C 118.554 109.261 119.074 109.564 119.534 109.911 C 119.988 110.258 120.361 110.644 120.654 111.071 C 120.948 111.498 121.094 111.984 121.094 112.531 C 121.094 113.351 120.848 114.058 120.354 114.651 C 119.861 115.244 119.221 115.744 118.434 116.151 C 117.654 116.564 116.771 116.898 115.784 117.151 C 114.798 117.411 113.808 117.611 112.814 117.751 C 111.821 117.898 110.874 117.994 109.974 118.041 C 109.074 118.088 108.314 118.121 107.694 118.141 C 105.941 118.174 104.191 118.174 102.444 118.141 C 102.624 117.721 102.764 117.101 102.864 116.281 C 102.964 115.461 103.041 114.594 103.094 113.681 C 103.134 112.734 103.154 111.818 103.154 110.931 C 103.154 110.051 103.154 109.364 103.154 108.871 C 103.154 108.684 103.154 108.314 103.154 107.761 C 103.154 107.208 103.144 106.561 103.124 105.821 C 103.104 105.081 103.081 104.291 103.054 103.451 C 103.028 102.618 102.988 101.821 102.934 101.061 C 102.881 100.308 102.818 99.628 102.744 99.021 C 102.671 98.421 102.581 97.994 102.474 97.741 C 103.474 97.741 104.418 97.741 105.304 97.741 C 106.184 97.741 107.058 97.744 107.924 97.751 C 108.791 97.764 109.668 97.791 110.554 97.831 C 111.434 97.878 112.368 97.958 113.354 98.071 C 113.881 98.124 114.474 98.198 115.134 98.291 C 115.788 98.378 116.448 98.498 117.114 98.651 C 117.781 98.811 118.428 99.014 119.054 99.261 C 119.681 99.501 120.241 99.811 120.734 100.191 C 121.228 100.564 121.621 101.001 121.914 101.501 C 122.201 102.001 122.344 102.598 122.344 103.291 C 122.344 103.984 122.158 104.598 121.784 105.131 C 121.411 105.671 120.928 106.141 120.334 106.541 C 119.748 106.941 119.094 107.288 118.374 107.581 C 117.654 107.874 116.948 108.121 116.254 108.321 Z M 113.134 100.501 C 112.568 100.428 111.994 100.368 111.414 100.321 C 110.828 100.274 110.271 100.248 109.744 100.241 C 109.218 100.234 108.734 100.231 108.294 100.231 C 107.854 100.231 107.491 100.231 107.204 100.231 C 107.144 101.358 107.101 102.464 107.074 103.551 C 107.048 104.638 107.024 105.754 107.004 106.901 C 107.391 106.901 107.831 106.894 108.324 106.881 C 108.811 106.874 109.334 106.858 109.894 106.831 C 110.448 106.804 111.018 106.758 111.604 106.691 C 112.184 106.631 112.748 106.544 113.294 106.431 C 113.841 106.324 114.371 106.188 114.884 106.021 C 115.391 105.861 115.841 105.651 116.234 105.391 C 116.628 105.138 116.944 104.838 117.184 104.491 C 117.418 104.144 117.534 103.734 117.534 103.261 C 117.534 102.841 117.411 102.478 117.164 102.171 C 116.918 101.858 116.591 101.591 116.184 101.371 C 115.771 101.158 115.301 100.981 114.774 100.841 C 114.248 100.708 113.701 100.594 113.134 100.501 Z M 112.424 110.101 C 111.404 109.934 110.391 109.838 109.384 109.811 C 108.384 109.784 107.591 109.761 107.004 109.741 C 107.004 110.748 107.014 111.724 107.034 112.671 C 107.054 113.618 107.091 114.591 107.144 115.591 C 107.418 115.591 107.751 115.591 108.144 115.591 C 108.538 115.591 108.971 115.578 109.444 115.551 C 109.918 115.524 110.414 115.488 110.934 115.441 C 111.454 115.394 111.961 115.328 112.454 115.241 C 112.941 115.148 113.418 115.034 113.884 114.901 C 114.351 114.761 114.761 114.588 115.114 114.381 C 115.468 114.168 115.754 113.914 115.974 113.621 C 116.194 113.334 116.304 112.991 116.304 112.591 C 116.304 112.224 116.194 111.904 115.974 111.631 C 115.754 111.358 115.464 111.121 115.104 110.921 C 114.738 110.721 114.321 110.558 113.854 110.431 C 113.394 110.298 112.918 110.188 112.424 110.101 ZM 140.259 104.681 C 140.185 104.808 140.115 105.081 140.049 105.501 C 139.989 105.921 139.929 106.418 139.869 106.991 C 139.815 107.571 139.772 108.198 139.739 108.871 C 139.699 109.544 139.665 110.184 139.639 110.791 C 139.612 111.404 139.595 111.954 139.589 112.441 C 139.575 112.921 139.569 113.271 139.569 113.491 C 139.569 113.671 139.569 113.994 139.569 114.461 C 139.569 114.928 139.592 115.404 139.639 115.891 C 139.685 116.384 139.749 116.831 139.829 117.231 C 139.915 117.638 140.039 117.878 140.199 117.951 L 135.389 117.921 L 135.499 116.611 C 134.805 117.098 134.049 117.501 133.229 117.821 C 132.409 118.141 131.569 118.301 130.709 118.301 C 129.855 118.301 129.032 118.198 128.239 117.991 C 127.445 117.778 126.749 117.454 126.149 117.021 C 125.549 116.581 125.065 116.018 124.699 115.331 C 124.332 114.651 124.149 113.828 124.149 112.861 C 124.149 111.641 124.209 110.428 124.329 109.221 C 124.449 108.021 124.509 106.811 124.509 105.591 C 124.509 105.391 124.502 105.188 124.489 104.981 C 124.482 104.781 124.459 104.581 124.419 104.381 L 129.049 104.381 C 128.862 104.694 128.725 105.188 128.639 105.861 C 128.545 106.534 128.475 107.254 128.429 108.021 C 128.382 108.788 128.355 109.531 128.349 110.251 C 128.335 110.971 128.329 111.531 128.329 111.931 C 128.329 112.624 128.385 113.198 128.499 113.651 C 128.605 114.111 128.792 114.478 129.059 114.751 C 129.325 115.024 129.685 115.214 130.139 115.321 C 130.592 115.428 131.165 115.481 131.859 115.481 C 132.245 115.481 132.615 115.414 132.969 115.281 C 133.322 115.141 133.665 114.964 133.999 114.751 C 134.325 114.531 134.625 114.284 134.899 114.011 C 135.172 113.738 135.419 113.464 135.639 113.191 C 135.672 112.384 135.699 111.591 135.719 110.811 C 135.739 110.024 135.749 109.231 135.749 108.431 C 135.749 108.264 135.749 107.994 135.749 107.621 C 135.749 107.248 135.739 106.861 135.719 106.461 C 135.699 106.061 135.665 105.691 135.619 105.351 C 135.572 105.018 135.512 104.794 135.439 104.681 L 140.259 104.681 ZM 143.204 105.201 L 148.014 105.231 C 147.927 105.251 147.86 105.328 147.814 105.461 C 147.767 105.601 147.727 105.708 147.694 105.781 C 147.567 106.234 147.47 106.784 147.404 107.431 C 147.337 108.078 147.29 108.754 147.264 109.461 C 147.237 110.161 147.22 110.838 147.214 111.491 C 147.2 112.151 147.194 112.724 147.194 113.211 C 147.194 113.378 147.194 113.711 147.194 114.211 C 147.194 114.711 147.21 115.244 147.244 115.811 C 147.27 116.378 147.31 116.894 147.364 117.361 C 147.417 117.821 147.497 118.108 147.604 118.221 L 142.764 118.221 C 142.857 118.094 142.95 117.794 143.044 117.321 C 143.13 116.848 143.207 116.281 143.274 115.621 C 143.34 114.968 143.4 114.261 143.454 113.501 C 143.507 112.748 143.557 112.028 143.604 111.341 C 143.65 110.661 143.68 110.051 143.694 109.511 C 143.714 108.971 143.724 108.601 143.724 108.401 C 143.724 108.294 143.724 108.078 143.724 107.751 C 143.724 107.418 143.707 107.074 143.674 106.721 C 143.634 106.368 143.577 106.041 143.504 105.741 C 143.43 105.441 143.33 105.261 143.204 105.201 Z M 145.584 98.591 C 145.824 98.591 146.087 98.628 146.374 98.701 C 146.667 98.768 146.937 98.871 147.184 99.011 C 147.43 99.144 147.637 99.328 147.804 99.561 C 147.964 99.788 148.044 100.048 148.044 100.341 C 148.044 100.628 147.964 100.881 147.804 101.101 C 147.637 101.321 147.43 101.498 147.184 101.631 C 146.937 101.771 146.667 101.878 146.374 101.951 C 146.087 102.024 145.824 102.061 145.584 102.061 C 145.33 102.061 145.06 102.024 144.774 101.951 C 144.494 101.878 144.23 101.771 143.984 101.631 C 143.737 101.498 143.534 101.321 143.374 101.101 C 143.207 100.881 143.124 100.628 143.124 100.341 C 143.124 100.048 143.207 99.788 143.374 99.561 C 143.534 99.328 143.737 99.144 143.984 99.011 C 144.23 98.871 144.494 98.768 144.774 98.701 C 145.06 98.628 145.33 98.591 145.584 98.591 ZM 150.835 118.251 C 150.922 118.104 151.012 117.661 151.105 116.921 C 151.199 116.181 151.275 115.298 151.335 114.271 C 151.402 113.238 151.462 112.124 151.515 110.931 C 151.569 109.738 151.619 108.604 151.665 107.531 C 151.712 106.451 151.745 105.501 151.765 104.681 C 151.785 103.861 151.795 103.308 151.795 103.021 C 151.795 102.854 151.795 102.521 151.795 102.021 C 151.795 101.521 151.779 100.988 151.745 100.421 C 151.719 99.854 151.669 99.338 151.595 98.871 C 151.522 98.411 151.415 98.134 151.275 98.041 L 156.495 98.091 C 156.402 98.111 156.332 98.221 156.285 98.421 C 156.239 98.621 156.209 98.758 156.195 98.831 C 155.995 99.744 155.865 100.671 155.805 101.611 C 155.752 102.551 155.699 103.484 155.645 104.411 C 155.552 105.958 155.485 107.488 155.445 109.001 C 155.399 110.514 155.375 112.048 155.375 113.601 C 155.375 113.748 155.375 114.051 155.375 114.511 C 155.375 114.978 155.382 115.468 155.395 115.981 C 155.415 116.488 155.445 116.964 155.485 117.411 C 155.519 117.858 155.582 118.138 155.675 118.251 L 150.835 118.251 ZM 176.427 118.001 L 171.617 118.001 C 171.703 117.761 171.76 117.454 171.787 117.081 C 171.82 116.708 171.837 116.394 171.837 116.141 C 171.07 116.708 170.213 117.121 169.267 117.381 C 168.313 117.648 167.363 117.781 166.417 117.781 C 165.503 117.781 164.557 117.648 163.577 117.381 C 162.59 117.121 161.687 116.728 160.867 116.201 C 160.047 115.668 159.367 115.004 158.827 114.211 C 158.293 113.418 158.027 112.494 158.027 111.441 C 158.027 110.308 158.33 109.318 158.937 108.471 C 159.55 107.624 160.317 106.918 161.237 106.351 C 162.157 105.784 163.163 105.361 164.257 105.081 C 165.35 104.801 166.38 104.661 167.347 104.661 C 168.113 104.661 168.873 104.751 169.627 104.931 C 170.387 105.111 171.103 105.411 171.777 105.831 C 171.757 105.651 171.743 105.338 171.737 104.891 C 171.73 104.444 171.713 103.934 171.687 103.361 C 171.653 102.788 171.617 102.191 171.577 101.571 C 171.53 100.951 171.47 100.371 171.397 99.831 C 171.323 99.291 171.237 98.841 171.137 98.481 C 171.037 98.114 170.923 97.904 170.797 97.851 L 175.987 97.821 C 175.86 97.914 175.76 98.171 175.687 98.591 C 175.613 99.004 175.563 99.468 175.537 99.981 C 175.51 100.494 175.493 100.981 175.487 101.441 C 175.473 101.908 175.467 102.231 175.467 102.411 C 175.467 102.798 175.477 103.428 175.497 104.301 C 175.517 105.174 175.55 106.164 175.597 107.271 C 175.637 108.371 175.687 109.518 175.747 110.711 C 175.8 111.904 175.857 113.014 175.917 114.041 C 175.983 115.061 176.063 115.934 176.157 116.661 C 176.243 117.388 176.333 117.834 176.427 118.001 Z M 167.107 115.291 C 167.507 115.291 167.983 115.214 168.537 115.061 C 169.09 114.908 169.613 114.684 170.107 114.391 C 170.6 114.098 171.02 113.751 171.367 113.351 C 171.713 112.951 171.887 112.504 171.887 112.011 C 171.887 111.718 171.897 111.418 171.917 111.111 C 171.93 110.798 171.92 110.504 171.887 110.231 C 171.813 109.744 171.63 109.318 171.337 108.951 C 171.05 108.584 170.7 108.284 170.287 108.051 C 169.88 107.811 169.437 107.631 168.957 107.511 C 168.483 107.398 168.02 107.341 167.567 107.341 C 166.947 107.341 166.313 107.421 165.667 107.581 C 165.02 107.748 164.433 108.004 163.907 108.351 C 163.373 108.698 162.94 109.134 162.607 109.661 C 162.267 110.188 162.097 110.818 162.097 111.551 C 162.097 112.224 162.253 112.798 162.567 113.271 C 162.873 113.744 163.263 114.131 163.737 114.431 C 164.21 114.731 164.743 114.951 165.337 115.091 C 165.93 115.224 166.52 115.291 167.107 115.291 ZM 207.455 106.841 C 207.768 106.421 208.075 105.934 208.375 105.381 C 208.675 104.828 208.825 104.268 208.825 103.701 C 208.825 103.061 208.612 102.538 208.185 102.131 C 207.752 101.718 207.235 101.394 206.635 101.161 C 206.035 100.921 205.402 100.754 204.735 100.661 C 204.068 100.574 203.488 100.531 202.995 100.531 C 201.815 100.531 200.618 100.748 199.405 101.181 C 198.192 101.621 197.092 102.234 196.105 103.021 C 195.125 103.801 194.318 104.728 193.685 105.801 C 193.058 106.881 192.745 108.058 192.745 109.331 C 192.745 110.098 192.885 110.774 193.165 111.361 C 193.452 111.941 193.835 112.441 194.315 112.861 C 194.802 113.281 195.355 113.638 195.975 113.931 C 196.595 114.218 197.245 114.444 197.925 114.611 C 198.612 114.778 199.302 114.894 199.995 114.961 C 200.688 115.034 201.335 115.071 201.935 115.071 C 203.428 115.071 204.915 114.944 206.395 114.691 C 207.868 114.438 209.335 114.111 210.795 113.711 L 211.855 116.551 C 211.075 116.804 210.252 117.024 209.385 117.211 C 208.518 117.391 207.642 117.534 206.755 117.641 C 205.875 117.754 204.992 117.838 204.105 117.891 C 203.225 117.944 202.375 117.971 201.555 117.971 C 200.748 117.971 199.848 117.918 198.855 117.811 C 197.862 117.698 196.865 117.521 195.865 117.281 C 194.858 117.034 193.878 116.708 192.925 116.301 C 191.965 115.901 191.112 115.401 190.365 114.801 C 189.618 114.201 189.022 113.501 188.575 112.701 C 188.128 111.894 187.905 110.971 187.905 109.931 C 187.905 108.678 188.148 107.498 188.635 106.391 C 189.115 105.291 189.755 104.288 190.555 103.381 C 191.362 102.481 192.302 101.681 193.375 100.981 C 194.448 100.281 195.578 99.688 196.765 99.201 C 197.952 98.721 199.155 98.358 200.375 98.111 C 201.595 97.864 202.772 97.741 203.905 97.741 C 204.958 97.741 206.038 97.821 207.145 97.981 C 208.245 98.148 209.248 98.464 210.155 98.931 C 211.055 99.391 211.792 100.028 212.365 100.841 C 212.938 101.654 213.225 102.718 213.225 104.031 C 213.225 104.504 213.188 104.978 213.115 105.451 C 213.042 105.924 212.932 106.388 212.785 106.841 L 207.455 106.841 ZM 231.163 104.681 C 231.09 104.808 231.02 105.081 230.953 105.501 C 230.893 105.921 230.833 106.418 230.773 106.991 C 230.72 107.571 230.677 108.198 230.643 108.871 C 230.603 109.544 230.57 110.184 230.543 110.791 C 230.517 111.404 230.5 111.954 230.493 112.441 C 230.48 112.921 230.473 113.271 230.473 113.491 C 230.473 113.671 230.473 113.994 230.473 114.461 C 230.473 114.928 230.497 115.404 230.543 115.891 C 230.59 116.384 230.653 116.831 230.733 117.231 C 230.82 117.638 230.943 117.878 231.103 117.951 L 226.293 117.921 L 226.403 116.611 C 225.71 117.098 224.953 117.501 224.133 117.821 C 223.313 118.141 222.473 118.301 221.613 118.301 C 220.76 118.301 219.937 118.198 219.143 117.991 C 218.35 117.778 217.653 117.454 217.053 117.021 C 216.453 116.581 215.97 116.018 215.603 115.331 C 215.237 114.651 215.053 113.828 215.053 112.861 C 215.053 111.641 215.113 110.428 215.233 109.221 C 215.353 108.021 215.413 106.811 215.413 105.591 C 215.413 105.391 215.407 105.188 215.393 104.981 C 215.387 104.781 215.363 104.581 215.323 104.381 L 219.953 104.381 C 219.767 104.694 219.63 105.188 219.543 105.861 C 219.45 106.534 219.38 107.254 219.333 108.021 C 219.287 108.788 219.26 109.531 219.253 110.251 C 219.24 110.971 219.233 111.531 219.233 111.931 C 219.233 112.624 219.29 113.198 219.403 113.651 C 219.51 114.111 219.697 114.478 219.963 114.751 C 220.23 115.024 220.59 115.214 221.043 115.321 C 221.497 115.428 222.07 115.481 222.763 115.481 C 223.15 115.481 223.52 115.414 223.873 115.281 C 224.227 115.141 224.57 114.964 224.903 114.751 C 225.23 114.531 225.53 114.284 225.803 114.011 C 226.077 113.738 226.323 113.464 226.543 113.191 C 226.577 112.384 226.603 111.591 226.623 110.811 C 226.643 110.024 226.653 109.231 226.653 108.431 C 226.653 108.264 226.653 107.994 226.653 107.621 C 226.653 107.248 226.643 106.861 226.623 106.461 C 226.603 106.061 226.57 105.691 226.523 105.351 C 226.477 105.018 226.417 104.794 226.343 104.681 L 231.163 104.681 ZM 244.638 109.931 C 244.745 109.624 244.835 109.301 244.908 108.961 C 244.982 108.628 245.018 108.288 245.018 107.941 C 245.018 107.174 244.815 106.604 244.408 106.231 C 243.995 105.858 243.405 105.671 242.638 105.671 C 242.205 105.671 241.692 105.721 241.098 105.821 C 240.505 105.921 239.945 106.088 239.418 106.321 C 238.885 106.561 238.432 106.871 238.058 107.251 C 237.685 107.638 237.498 108.114 237.498 108.681 C 237.498 109.094 237.705 109.444 238.118 109.731 C 238.525 110.011 239.002 110.238 239.548 110.411 C 240.095 110.584 240.648 110.718 241.208 110.811 C 241.762 110.904 242.185 110.978 242.478 111.031 C 242.932 111.118 243.512 111.231 244.218 111.371 C 244.918 111.504 245.595 111.704 246.248 111.971 C 246.908 112.238 247.475 112.568 247.948 112.961 C 248.422 113.348 248.658 113.844 248.658 114.451 C 248.658 115.124 248.395 115.688 247.868 116.141 C 247.335 116.594 246.702 116.958 245.968 117.231 C 245.228 117.504 244.458 117.701 243.658 117.821 C 242.852 117.941 242.185 118.001 241.658 118.001 C 240.565 118.001 239.482 117.924 238.408 117.771 C 237.328 117.618 236.268 117.358 235.228 116.991 C 235.102 116.938 234.892 116.851 234.598 116.731 C 234.312 116.611 234.008 116.484 233.688 116.351 C 233.368 116.211 233.072 116.088 232.798 115.981 C 232.525 115.868 232.352 115.811 232.278 115.811 C 232.312 115.798 232.438 115.688 232.658 115.481 C 232.878 115.281 233.112 115.058 233.358 114.811 C 233.605 114.571 233.828 114.341 234.028 114.121 C 234.228 113.901 234.338 113.764 234.358 113.711 C 235.285 114.404 236.318 114.914 237.458 115.241 C 238.598 115.568 239.742 115.731 240.888 115.731 C 241.015 115.731 241.262 115.718 241.628 115.691 C 241.995 115.664 242.375 115.614 242.768 115.541 C 243.155 115.468 243.505 115.368 243.818 115.241 C 244.125 115.114 244.278 114.951 244.278 114.751 C 244.278 114.458 244.025 114.221 243.518 114.041 C 243.005 113.854 242.362 113.681 241.588 113.521 C 240.815 113.354 239.982 113.171 239.088 112.971 C 238.195 112.771 237.362 112.511 236.588 112.191 C 235.808 111.871 235.165 111.474 234.658 111.001 C 234.145 110.528 233.888 109.918 233.888 109.171 C 233.888 108.078 234.185 107.144 234.778 106.371 C 235.372 105.591 236.115 104.961 237.008 104.481 C 237.902 103.994 238.868 103.644 239.908 103.431 C 240.948 103.211 241.922 103.101 242.828 103.101 C 243.582 103.101 244.302 103.161 244.988 103.281 C 245.682 103.394 246.295 103.608 246.828 103.921 C 247.355 104.228 247.778 104.654 248.098 105.201 C 248.418 105.748 248.578 106.461 248.578 107.341 C 248.578 107.774 248.545 108.211 248.478 108.651 C 248.418 109.084 248.342 109.511 248.248 109.931 L 244.638 109.931 ZM 257.596 108.131 C 257.562 109.058 257.526 109.991 257.486 110.931 C 257.452 111.871 257.436 112.804 257.436 113.731 C 257.436 114.044 257.499 114.311 257.626 114.531 C 257.752 114.751 257.919 114.928 258.126 115.061 C 258.339 115.201 258.576 115.298 258.836 115.351 C 259.102 115.404 259.372 115.431 259.646 115.431 C 259.992 115.431 260.336 115.404 260.676 115.351 C 261.009 115.298 261.339 115.224 261.666 115.131 L 261.236 118.051 C 260.176 118.051 259.182 118.021 258.256 117.961 C 257.322 117.894 256.509 117.698 255.816 117.371 C 255.122 117.044 254.576 116.521 254.176 115.801 C 253.776 115.081 253.576 114.064 253.576 112.751 C 253.576 111.984 253.599 111.214 253.646 110.441 C 253.692 109.668 253.752 108.898 253.826 108.131 L 249.776 108.161 L 249.966 105.481 C 250.626 105.534 251.292 105.564 251.966 105.571 C 252.639 105.584 253.312 105.591 253.986 105.591 C 254.026 105.058 254.052 104.541 254.066 104.041 C 254.086 103.541 254.096 103.028 254.096 102.501 C 254.096 102.388 254.096 102.168 254.096 101.841 C 254.096 101.514 254.079 101.171 254.046 100.811 C 254.006 100.458 253.949 100.134 253.876 99.841 C 253.802 99.554 253.702 99.381 253.576 99.321 L 258.606 99.411 C 258.532 99.411 258.479 99.464 258.446 99.571 C 258.406 99.678 258.369 99.761 258.336 99.821 C 258.222 100.168 258.136 100.584 258.076 101.071 C 258.009 101.564 257.952 102.081 257.906 102.621 C 257.866 103.161 257.832 103.681 257.806 104.181 C 257.772 104.681 257.749 105.121 257.736 105.501 C 258.356 105.468 258.982 105.438 259.616 105.411 C 260.256 105.384 260.886 105.298 261.506 105.151 L 261.506 108.101 L 257.596 108.131 ZM 272.883 104.821 C 273.883 104.821 274.939 104.961 276.053 105.241 C 277.166 105.528 278.176 105.958 279.083 106.531 C 279.996 107.104 280.753 107.828 281.353 108.701 C 281.959 109.581 282.263 110.611 282.263 111.791 C 282.263 112.578 282.116 113.284 281.823 113.911 C 281.529 114.544 281.143 115.101 280.663 115.581 C 280.176 116.061 279.613 116.481 278.973 116.841 C 278.339 117.194 277.669 117.484 276.963 117.711 C 276.263 117.938 275.549 118.108 274.823 118.221 C 274.089 118.328 273.406 118.381 272.773 118.381 C 271.733 118.381 270.666 118.264 269.573 118.031 C 268.479 117.791 267.479 117.408 266.573 116.881 C 265.673 116.354 264.936 115.664 264.363 114.811 C 263.789 113.964 263.503 112.921 263.503 111.681 C 263.503 110.461 263.799 109.418 264.393 108.551 C 264.986 107.684 265.736 106.974 266.643 106.421 C 267.556 105.868 268.563 105.461 269.663 105.201 C 270.769 104.948 271.843 104.821 272.883 104.821 Z M 267.603 111.661 C 267.603 112.368 267.763 112.968 268.083 113.461 C 268.403 113.954 268.813 114.354 269.313 114.661 C 269.813 114.974 270.373 115.198 270.993 115.331 C 271.613 115.471 272.223 115.541 272.823 115.541 C 273.389 115.541 273.983 115.468 274.603 115.321 C 275.223 115.174 275.796 114.948 276.323 114.641 C 276.849 114.328 277.286 113.931 277.633 113.451 C 277.979 112.964 278.153 112.384 278.153 111.711 C 278.153 111.038 277.989 110.451 277.663 109.951 C 277.336 109.451 276.916 109.031 276.403 108.691 C 275.896 108.351 275.326 108.101 274.693 107.941 C 274.066 107.774 273.463 107.691 272.883 107.691 C 272.276 107.691 271.663 107.768 271.043 107.921 C 270.423 108.081 269.859 108.318 269.353 108.631 C 268.839 108.951 268.419 109.364 268.093 109.871 C 267.766 110.371 267.603 110.968 267.603 111.661 ZM 309.676 118.001 L 304.896 118.001 C 305.076 117.674 305.226 117.211 305.346 116.611 C 305.466 116.004 305.556 115.374 305.616 114.721 C 305.683 114.061 305.729 113.418 305.756 112.791 C 305.783 112.164 305.796 111.658 305.796 111.271 C 305.796 110.798 305.756 110.331 305.676 109.871 C 305.596 109.404 305.456 108.991 305.256 108.631 C 305.049 108.278 304.766 107.991 304.406 107.771 C 304.039 107.558 303.573 107.451 303.006 107.451 C 302.313 107.451 301.656 107.631 301.036 107.991 C 300.416 108.358 299.869 108.778 299.396 109.251 C 299.456 109.671 299.486 110.071 299.486 110.451 C 299.486 111.271 299.476 112.084 299.456 112.891 C 299.436 113.691 299.426 114.501 299.426 115.321 C 299.426 115.774 299.429 116.224 299.436 116.671 C 299.449 117.118 299.493 117.561 299.566 118.001 L 294.776 118.001 C 294.963 117.674 295.113 117.211 295.226 116.611 C 295.346 116.004 295.443 115.374 295.516 114.721 C 295.589 114.061 295.636 113.418 295.656 112.791 C 295.669 112.164 295.676 111.658 295.676 111.271 C 295.676 110.798 295.636 110.331 295.556 109.871 C 295.476 109.404 295.336 108.991 295.136 108.631 C 294.936 108.278 294.653 107.991 294.286 107.771 C 293.919 107.558 293.456 107.451 292.896 107.451 C 292.163 107.451 291.473 107.651 290.826 108.051 C 290.179 108.451 289.619 108.914 289.146 109.441 C 289.113 110.281 289.086 111.121 289.066 111.961 C 289.046 112.794 289.036 113.641 289.036 114.501 C 289.036 114.628 289.036 114.878 289.036 115.251 C 289.036 115.624 289.046 116.021 289.066 116.441 C 289.086 116.861 289.113 117.248 289.146 117.601 C 289.179 117.961 289.243 118.178 289.336 118.251 L 284.496 118.251 C 284.569 118.158 284.643 117.898 284.716 117.471 C 284.789 117.038 284.853 116.528 284.906 115.941 C 284.959 115.348 285.006 114.708 285.046 114.021 C 285.079 113.341 285.109 112.691 285.136 112.071 C 285.163 111.451 285.183 110.904 285.196 110.431 C 285.203 109.951 285.206 109.621 285.206 109.441 C 285.206 109.294 285.203 108.991 285.196 108.531 C 285.183 108.064 285.159 107.581 285.126 107.081 C 285.093 106.574 285.033 106.114 284.946 105.701 C 284.866 105.281 284.743 105.041 284.576 104.981 L 289.366 105.011 C 289.326 105.211 289.306 105.424 289.306 105.651 C 289.306 105.884 289.299 106.108 289.286 106.321 C 289.959 105.834 290.709 105.431 291.536 105.111 C 292.369 104.791 293.213 104.631 294.066 104.631 C 294.979 104.631 295.843 104.818 296.656 105.191 C 297.463 105.564 298.113 106.151 298.606 106.951 C 299.319 106.278 300.179 105.724 301.186 105.291 C 302.199 104.851 303.199 104.631 304.186 104.631 C 305.059 104.631 305.833 104.771 306.506 105.051 C 307.179 105.338 307.746 105.741 308.206 106.261 C 308.659 106.781 309.006 107.394 309.246 108.101 C 309.479 108.814 309.596 109.598 309.596 110.451 C 309.596 111.271 309.583 112.084 309.556 112.891 C 309.529 113.691 309.516 114.501 309.516 115.321 C 309.516 115.774 309.526 116.224 309.546 116.671 C 309.566 117.118 309.609 117.561 309.676 118.001 ZM 354.766 97.821 C 354.546 97.948 354.252 98.294 353.886 98.861 C 353.526 99.428 353.116 100.134 352.656 100.981 C 352.202 101.828 351.716 102.784 351.196 103.851 C 350.676 104.918 350.152 106.014 349.626 107.141 C 349.099 108.274 348.579 109.408 348.066 110.541 C 347.552 111.668 347.082 112.718 346.656 113.691 C 346.229 114.671 345.856 115.538 345.536 116.291 C 345.216 117.051 344.976 117.621 344.816 118.001 L 340.056 118.001 C 339.436 116.121 338.802 114.261 338.156 112.421 C 337.509 110.581 336.839 108.731 336.146 106.871 C 335.412 108.711 334.722 110.558 334.076 112.411 C 333.429 114.258 332.806 116.121 332.206 118.001 L 327.446 118.001 C 327.286 117.621 327.039 117.051 326.706 116.291 C 326.379 115.538 326.002 114.671 325.576 113.691 C 325.149 112.718 324.686 111.671 324.186 110.551 C 323.679 109.431 323.162 108.304 322.636 107.171 C 322.109 106.044 321.586 104.948 321.066 103.881 C 320.546 102.814 320.059 101.858 319.606 101.011 C 319.146 100.158 318.732 99.451 318.366 98.891 C 318.006 98.324 317.716 97.978 317.496 97.851 C 318.496 97.851 319.492 97.854 320.486 97.861 C 321.479 97.868 322.479 97.864 323.486 97.851 C 323.432 97.884 323.399 97.944 323.386 98.031 C 323.379 98.111 323.376 98.178 323.376 98.231 C 323.376 98.631 323.499 99.228 323.746 100.021 C 323.992 100.814 324.312 101.708 324.706 102.701 C 325.092 103.694 325.529 104.744 326.016 105.851 C 326.496 106.951 326.969 108.001 327.436 109.001 C 327.902 110.008 328.329 110.914 328.716 111.721 C 329.109 112.534 329.416 113.151 329.636 113.571 C 330.456 111.584 331.246 109.588 332.006 107.581 C 332.759 105.574 333.436 103.534 334.036 101.461 C 333.949 101.261 333.822 100.978 333.656 100.611 C 333.489 100.244 333.312 99.881 333.126 99.521 C 332.932 99.154 332.726 98.811 332.506 98.491 C 332.286 98.171 332.076 97.948 331.876 97.821 L 337.926 97.821 C 337.832 97.894 337.782 97.981 337.776 98.081 C 337.762 98.181 337.756 98.278 337.756 98.371 C 337.756 98.804 337.852 99.414 338.046 100.201 C 338.239 100.981 338.479 101.848 338.766 102.801 C 339.059 103.748 339.392 104.741 339.766 105.781 C 340.139 106.821 340.509 107.824 340.876 108.791 C 341.242 109.751 341.579 110.634 341.886 111.441 C 342.199 112.241 342.456 112.868 342.656 113.321 C 342.856 112.908 343.149 112.304 343.536 111.511 C 343.929 110.718 344.356 109.824 344.816 108.831 C 345.269 107.838 345.736 106.798 346.216 105.711 C 346.702 104.624 347.142 103.594 347.536 102.621 C 347.929 101.648 348.252 100.768 348.506 99.981 C 348.759 99.194 348.886 98.611 348.886 98.231 C 348.886 98.158 348.882 98.081 348.876 98.001 C 348.862 97.914 348.819 97.854 348.746 97.821 C 350.752 97.854 352.759 97.854 354.766 97.821 ZM 360.367 118.411 C 359.473 118.411 358.527 118.291 357.527 118.051 C 356.52 117.818 355.593 117.451 354.747 116.951 C 353.9 116.451 353.197 115.818 352.637 115.051 C 352.083 114.284 351.807 113.371 351.807 112.311 C 351.807 111.018 352.063 109.861 352.577 108.841 C 353.083 107.821 353.767 106.961 354.627 106.261 C 355.48 105.554 356.473 105.014 357.607 104.641 C 358.733 104.268 359.917 104.081 361.157 104.081 C 362.143 104.081 363.02 104.241 363.787 104.561 C 364.553 104.881 365.19 105.328 365.697 105.901 C 366.21 106.474 366.597 107.154 366.857 107.941 C 367.123 108.721 367.257 109.588 367.257 110.541 C 367.257 111.448 367.12 112.321 366.847 113.161 L 355.447 113.161 C 355.627 113.708 355.913 114.154 356.307 114.501 C 356.7 114.848 357.147 115.118 357.647 115.311 C 358.147 115.498 358.673 115.628 359.227 115.701 C 359.787 115.774 360.313 115.811 360.807 115.811 C 361.113 115.811 361.527 115.788 362.047 115.741 C 362.567 115.701 363.1 115.631 363.647 115.531 C 364.193 115.424 364.71 115.301 365.197 115.161 C 365.677 115.014 366.037 114.831 366.277 114.611 L 367.617 116.961 C 366.41 117.414 365.223 117.771 364.057 118.031 C 362.89 118.284 361.66 118.411 360.367 118.411 Z M 360.367 106.651 C 359.82 106.651 359.277 106.761 358.737 106.981 C 358.203 107.201 357.717 107.488 357.277 107.841 C 356.837 108.194 356.453 108.614 356.127 109.101 C 355.8 109.581 355.563 110.078 355.417 110.591 L 363.237 110.591 C 363.29 110.044 363.293 109.528 363.247 109.041 C 363.207 108.561 363.087 108.144 362.887 107.791 C 362.68 107.431 362.377 107.151 361.977 106.951 C 361.577 106.751 361.04 106.651 360.367 106.651 ZM 379.617 104.251 C 380.597 104.251 381.567 104.381 382.527 104.641 C 383.481 104.908 384.341 105.304 385.107 105.831 C 385.874 106.358 386.494 107.034 386.967 107.861 C 387.441 108.681 387.677 109.638 387.677 110.731 C 387.677 111.478 387.524 112.174 387.217 112.821 C 386.904 113.468 386.494 114.054 385.987 114.581 C 385.474 115.108 384.904 115.574 384.277 115.981 C 383.651 116.381 383.027 116.698 382.407 116.931 C 381.107 117.424 379.774 117.671 378.407 117.671 C 377.641 117.671 376.891 117.591 376.157 117.431 C 375.417 117.264 374.711 116.991 374.037 116.611 C 374.057 116.811 374.074 117.041 374.087 117.301 C 374.107 117.568 374.164 117.801 374.257 118.001 L 369.437 118.001 C 369.531 117.854 369.617 117.424 369.697 116.711 C 369.784 116.004 369.864 115.148 369.937 114.141 C 370.011 113.141 370.074 112.058 370.127 110.891 C 370.181 109.724 370.231 108.604 370.277 107.531 C 370.324 106.451 370.354 105.484 370.367 104.631 C 370.387 103.771 370.397 103.151 370.397 102.771 C 370.397 102.571 370.397 102.221 370.397 101.721 C 370.397 101.214 370.381 100.688 370.347 100.141 C 370.307 99.594 370.251 99.094 370.177 98.641 C 370.104 98.188 370.004 97.914 369.877 97.821 L 375.077 97.851 C 374.951 97.904 374.841 98.114 374.747 98.481 C 374.654 98.841 374.571 99.291 374.497 99.831 C 374.424 100.371 374.367 100.958 374.327 101.591 C 374.281 102.231 374.237 102.838 374.197 103.411 C 374.164 103.984 374.137 104.501 374.117 104.961 C 374.097 105.414 374.087 105.731 374.087 105.911 C 374.894 105.364 375.771 104.951 376.717 104.671 C 377.664 104.391 378.631 104.251 379.617 104.251 Z M 378.387 114.941 C 379.021 114.941 379.654 114.848 380.287 114.661 C 380.914 114.481 381.484 114.208 381.997 113.841 C 382.504 113.481 382.914 113.031 383.227 112.491 C 383.534 111.951 383.687 111.328 383.687 110.621 C 383.687 109.961 383.547 109.391 383.267 108.911 C 382.981 108.424 382.611 108.024 382.157 107.711 C 381.704 107.391 381.187 107.158 380.607 107.011 C 380.034 106.864 379.457 106.791 378.877 106.791 C 378.351 106.791 377.804 106.874 377.237 107.041 C 376.671 107.201 376.147 107.438 375.667 107.751 C 375.181 108.058 374.784 108.438 374.477 108.891 C 374.164 109.351 373.997 109.881 373.977 110.481 L 373.977 111.551 C 373.977 112.131 374.111 112.634 374.377 113.061 C 374.644 113.494 374.991 113.848 375.417 114.121 C 375.844 114.394 376.317 114.598 376.837 114.731 C 377.357 114.871 377.874 114.941 378.387 114.941 ZM 400.447 109.931 C 400.554 109.624 400.644 109.301 400.717 108.961 C 400.791 108.628 400.827 108.288 400.827 107.941 C 400.827 107.174 400.624 106.604 400.217 106.231 C 399.804 105.858 399.214 105.671 398.447 105.671 C 398.014 105.671 397.501 105.721 396.907 105.821 C 396.314 105.921 395.754 106.088 395.227 106.321 C 394.694 106.561 394.241 106.871 393.867 107.251 C 393.494 107.638 393.307 108.114 393.307 108.681 C 393.307 109.094 393.514 109.444 393.927 109.731 C 394.334 110.011 394.811 110.238 395.357 110.411 C 395.904 110.584 396.457 110.718 397.017 110.811 C 397.571 110.904 397.994 110.978 398.287 111.031 C 398.741 111.118 399.321 111.231 400.027 111.371 C 400.727 111.504 401.404 111.704 402.057 111.971 C 402.717 112.238 403.284 112.568 403.757 112.961 C 404.231 113.348 404.467 113.844 404.467 114.451 C 404.467 115.124 404.204 115.688 403.677 116.141 C 403.144 116.594 402.511 116.958 401.777 117.231 C 401.037 117.504 400.267 117.701 399.467 117.821 C 398.661 117.941 397.994 118.001 397.467 118.001 C 396.374 118.001 395.291 117.924 394.217 117.771 C 393.137 117.618 392.077 117.358 391.037 116.991 C 390.911 116.938 390.701 116.851 390.407 116.731 C 390.121 116.611 389.817 116.484 389.497 116.351 C 389.177 116.211 388.881 116.088 388.607 115.981 C 388.334 115.868 388.161 115.811 388.087 115.811 C 388.121 115.798 388.247 115.688 388.467 115.481 C 388.687 115.281 388.921 115.058 389.167 114.811 C 389.414 114.571 389.637 114.341 389.837 114.121 C 390.037 113.901 390.147 113.764 390.167 113.711 C 391.094 114.404 392.127 114.914 393.267 115.241 C 394.407 115.568 395.551 115.731 396.697 115.731 C 396.824 115.731 397.071 115.718 397.437 115.691 C 397.804 115.664 398.184 115.614 398.577 115.541 C 398.964 115.468 399.314 115.368 399.627 115.241 C 399.934 115.114 400.087 114.951 400.087 114.751 C 400.087 114.458 399.834 114.221 399.327 114.041 C 398.814 113.854 398.171 113.681 397.397 113.521 C 396.624 113.354 395.791 113.171 394.897 112.971 C 394.004 112.771 393.171 112.511 392.397 112.191 C 391.617 111.871 390.974 111.474 390.467 111.001 C 389.954 110.528 389.697 109.918 389.697 109.171 C 389.697 108.078 389.994 107.144 390.587 106.371 C 391.181 105.591 391.924 104.961 392.817 104.481 C 393.711 103.994 394.677 103.644 395.717 103.431 C 396.757 103.211 397.731 103.101 398.637 103.101 C 399.391 103.101 400.111 103.161 400.797 103.281 C 401.491 103.394 402.104 103.608 402.637 103.921 C 403.164 104.228 403.587 104.654 403.907 105.201 C 404.227 105.748 404.387 106.461 404.387 107.341 C 404.387 107.774 404.354 108.211 404.287 108.651 C 404.227 109.084 404.151 109.511 404.057 109.931 L 400.447 109.931 ZM 407.415 105.201 L 412.225 105.231 C 412.138 105.251 412.071 105.328 412.025 105.461 C 411.978 105.601 411.938 105.708 411.905 105.781 C 411.778 106.234 411.681 106.784 411.615 107.431 C 411.548 108.078 411.501 108.754 411.475 109.461 C 411.448 110.161 411.431 110.838 411.425 111.491 C 411.411 112.151 411.405 112.724 411.405 113.211 C 411.405 113.378 411.405 113.711 411.405 114.211 C 411.405 114.711 411.421 115.244 411.455 115.811 C 411.481 116.378 411.521 116.894 411.575 117.361 C 411.628 117.821 411.708 118.108 411.815 118.221 L 406.975 118.221 C 407.068 118.094 407.161 117.794 407.255 117.321 C 407.341 116.848 407.418 116.281 407.485 115.621 C 407.551 114.968 407.611 114.261 407.665 113.501 C 407.718 112.748 407.768 112.028 407.815 111.341 C 407.861 110.661 407.891 110.051 407.905 109.511 C 407.925 108.971 407.935 108.601 407.935 108.401 C 407.935 108.294 407.935 108.078 407.935 107.751 C 407.935 107.418 407.918 107.074 407.885 106.721 C 407.845 106.368 407.788 106.041 407.715 105.741 C 407.641 105.441 407.541 105.261 407.415 105.201 Z M 409.795 98.591 C 410.035 98.591 410.298 98.628 410.585 98.701 C 410.878 98.768 411.148 98.871 411.395 99.011 C 411.641 99.144 411.848 99.328 412.015 99.561 C 412.175 99.788 412.255 100.048 412.255 100.341 C 412.255 100.628 412.175 100.881 412.015 101.101 C 411.848 101.321 411.641 101.498 411.395 101.631 C 411.148 101.771 410.878 101.878 410.585 101.951 C 410.298 102.024 410.035 102.061 409.795 102.061 C 409.541 102.061 409.271 102.024 408.985 101.951 C 408.705 101.878 408.441 101.771 408.195 101.631 C 407.948 101.498 407.745 101.321 407.585 101.101 C 407.418 100.881 407.335 100.628 407.335 100.341 C 407.335 100.048 407.418 99.788 407.585 99.561 C 407.745 99.328 407.948 99.144 408.195 99.011 C 408.441 98.871 408.705 98.768 408.985 98.701 C 409.271 98.628 409.541 98.591 409.795 98.591 ZM 421.197 108.131 C 421.163 109.058 421.127 109.991 421.087 110.931 C 421.053 111.871 421.037 112.804 421.037 113.731 C 421.037 114.044 421.1 114.311 421.227 114.531 C 421.353 114.751 421.52 114.928 421.727 115.061 C 421.94 115.201 422.177 115.298 422.437 115.351 C 422.703 115.404 422.973 115.431 423.247 115.431 C 423.593 115.431 423.937 115.404 424.277 115.351 C 424.61 115.298 424.94 115.224 425.267 115.131 L 424.837 118.051 C 423.777 118.051 422.783 118.021 421.857 117.961 C 420.923 117.894 420.11 117.698 419.417 117.371 C 418.723 117.044 418.177 116.521 417.777 115.801 C 417.377 115.081 417.177 114.064 417.177 112.751 C 417.177 111.984 417.2 111.214 417.247 110.441 C 417.293 109.668 417.353 108.898 417.427 108.131 L 413.377 108.161 L 413.567 105.481 C 414.227 105.534 414.893 105.564 415.567 105.571 C 416.24 105.584 416.913 105.591 417.587 105.591 C 417.627 105.058 417.653 104.541 417.667 104.041 C 417.687 103.541 417.697 103.028 417.697 102.501 C 417.697 102.388 417.697 102.168 417.697 101.841 C 417.697 101.514 417.68 101.171 417.647 100.811 C 417.607 100.458 417.55 100.134 417.477 99.841 C 417.403 99.554 417.303 99.381 417.177 99.321 L 422.207 99.411 C 422.133 99.411 422.08 99.464 422.047 99.571 C 422.007 99.678 421.97 99.761 421.937 99.821 C 421.823 100.168 421.737 100.584 421.677 101.071 C 421.61 101.564 421.553 102.081 421.507 102.621 C 421.467 103.161 421.433 103.681 421.407 104.181 C 421.373 104.681 421.35 105.121 421.337 105.501 C 421.957 105.468 422.583 105.438 423.217 105.411 C 423.857 105.384 424.487 105.298 425.107 105.151 L 425.107 108.101 L 421.197 108.131 ZM 435.524 118.411 C 434.63 118.411 433.684 118.291 432.684 118.051 C 431.677 117.818 430.75 117.451 429.904 116.951 C 429.057 116.451 428.354 115.818 427.794 115.051 C 427.24 114.284 426.964 113.371 426.964 112.311 C 426.964 111.018 427.22 109.861 427.734 108.841 C 428.24 107.821 428.924 106.961 429.784 106.261 C 430.637 105.554 431.63 105.014 432.764 104.641 C 433.89 104.268 435.074 104.081 436.314 104.081 C 437.3 104.081 438.177 104.241 438.944 104.561 C 439.71 104.881 440.347 105.328 440.854 105.901 C 441.367 106.474 441.754 107.154 442.014 107.941 C 442.28 108.721 442.414 109.588 442.414 110.541 C 442.414 111.448 442.277 112.321 442.004 113.161 L 430.604 113.161 C 430.784 113.708 431.07 114.154 431.464 114.501 C 431.857 114.848 432.304 115.118 432.804 115.311 C 433.304 115.498 433.83 115.628 434.384 115.701 C 434.944 115.774 435.47 115.811 435.964 115.811 C 436.27 115.811 436.684 115.788 437.204 115.741 C 437.724 115.701 438.257 115.631 438.804 115.531 C 439.35 115.424 439.867 115.301 440.354 115.161 C 440.834 115.014 441.194 114.831 441.434 114.611 L 442.774 116.961 C 441.567 117.414 440.38 117.771 439.214 118.031 C 438.047 118.284 436.817 118.411 435.524 118.411 Z M 435.524 106.651 C 434.977 106.651 434.434 106.761 433.894 106.981 C 433.36 107.201 432.874 107.488 432.434 107.841 C 431.994 108.194 431.61 108.614 431.284 109.101 C 430.957 109.581 430.72 110.078 430.574 110.591 L 438.394 110.591 C 438.447 110.044 438.45 109.528 438.404 109.041 C 438.364 108.561 438.244 108.144 438.044 107.791 C 437.837 107.431 437.534 107.151 437.134 106.951 C 436.734 106.751 436.197 106.651 435.524 106.651 ZM 455.974 109.931 C 456.081 109.624 456.171 109.301 456.244 108.961 C 456.318 108.628 456.354 108.288 456.354 107.941 C 456.354 107.174 456.151 106.604 455.744 106.231 C 455.331 105.858 454.741 105.671 453.974 105.671 C 453.541 105.671 453.028 105.721 452.434 105.821 C 451.841 105.921 451.281 106.088 450.754 106.321 C 450.221 106.561 449.768 106.871 449.394 107.251 C 449.021 107.638 448.834 108.114 448.834 108.681 C 448.834 109.094 449.041 109.444 449.454 109.731 C 449.861 110.011 450.338 110.238 450.884 110.411 C 451.431 110.584 451.984 110.718 452.544 110.811 C 453.098 110.904 453.521 110.978 453.814 111.031 C 454.268 111.118 454.848 111.231 455.554 111.371 C 456.254 111.504 456.931 111.704 457.584 111.971 C 458.244 112.238 458.811 112.568 459.284 112.961 C 459.758 113.348 459.994 113.844 459.994 114.451 C 459.994 115.124 459.731 115.688 459.204 116.141 C 458.671 116.594 458.038 116.958 457.304 117.231 C 456.564 117.504 455.794 117.701 454.994 117.821 C 454.188 117.941 453.521 118.001 452.994 118.001 C 451.901 118.001 450.818 117.924 449.744 117.771 C 448.664 117.618 447.604 117.358 446.564 116.991 C 446.438 116.938 446.228 116.851 445.934 116.731 C 445.648 116.611 445.344 116.484 445.024 116.351 C 444.704 116.211 444.408 116.088 444.134 115.981 C 443.861 115.868 443.688 115.811 443.614 115.811 C 443.648 115.798 443.774 115.688 443.994 115.481 C 444.214 115.281 444.448 115.058 444.694 114.811 C 444.941 114.571 445.164 114.341 445.364 114.121 C 445.564 113.901 445.674 113.764 445.694 113.711 C 446.621 114.404 447.654 114.914 448.794 115.241 C 449.934 115.568 451.078 115.731 452.224 115.731 C 452.351 115.731 452.598 115.718 452.964 115.691 C 453.331 115.664 453.711 115.614 454.104 115.541 C 454.491 115.468 454.841 115.368 455.154 115.241 C 455.461 115.114 455.614 114.951 455.614 114.751 C 455.614 114.458 455.361 114.221 454.854 114.041 C 454.341 113.854 453.698 113.681 452.924 113.521 C 452.151 113.354 451.318 113.171 450.424 112.971 C 449.531 112.771 448.698 112.511 447.924 112.191 C 447.144 111.871 446.501 111.474 445.994 111.001 C 445.481 110.528 445.224 109.918 445.224 109.171 C 445.224 108.078 445.521 107.144 446.114 106.371 C 446.708 105.591 447.451 104.961 448.344 104.481 C 449.238 103.994 450.204 103.644 451.244 103.431 C 452.284 103.211 453.258 103.101 454.164 103.101 C 454.918 103.101 455.638 103.161 456.324 103.281 C 457.018 103.394 457.631 103.608 458.164 103.921 C 458.691 104.228 459.114 104.654 459.434 105.201 C 459.754 105.748 459.914 106.461 459.914 107.341 C 459.914 107.774 459.881 108.211 459.814 108.651 C 459.754 109.084 459.678 109.511 459.584 109.931 L 455.974 109.931 Z" style="fill:#000;"/>
  </clipPath>
  <path id="we-build-render" stroke="#000000" stroke-width="1" clip-path="url(#we-build)" d="M 78.115 97.821 C 77.895 97.948 77.602 98.294 77.235 98.861 C 76.875 99.428 76.465 100.134 76.005 100.981 C 75.552 101.828 75.065 102.784 74.545 103.851 C 74.025 104.918 73.502 106.014 72.975 107.141 C 72.448 108.274 71.928 109.408 71.415 110.541 C 70.902 111.668 70.432 112.718 70.005 113.691 C 69.578 114.671 69.205 115.538 68.885 116.291 C 68.565 117.051 68.325 117.621 68.165 118.001 L 63.405 118.001 C 62.785 116.121 62.152 114.261 61.505 112.421 C 60.858 110.581 60.188 108.731 59.495 106.871 C 58.762 108.711 58.072 110.558 57.425 112.411 C 56.778 114.258 56.155 116.121 55.555 118.001 L 50.795 118.001 C 50.635 117.621 50.388 117.051 50.055 116.291 C 49.728 115.538 49.352 114.671 48.925 113.691 C 48.498 112.718 48.035 111.671 47.535 110.551 C 47.028 109.431 46.512 108.304 45.985 107.171 C 45.458 106.044 44.935 104.948 44.415 103.881 C 43.895 102.814 43.408 101.858 42.955 101.011 C 42.495 100.158 42.082 99.451 41.715 98.891 C 41.355 98.324 41.065 97.978 40.845 97.851 C 41.845 97.851 42.842 97.854 43.835 97.861 C 44.828 97.868 45.828 97.864 46.835 97.851 C 46.782 97.884 46.748 97.944 46.735 98.031 C 46.728 98.111 46.725 98.178 46.725 98.231 C 46.725 98.631 46.848 99.228 47.095 100.021 C 47.342 100.814 47.662 101.708 48.055 102.701 C 48.442 103.694 48.878 104.744 49.365 105.851 C 49.845 106.951 50.318 108.001 50.785 109.001 C 51.252 110.008 51.678 110.914 52.065 111.721 C 52.458 112.534 52.765 113.151 52.985 113.571 C 53.805 111.584 54.595 109.588 55.355 107.581 C 56.108 105.574 56.785 103.534 57.385 101.461 C 57.298 101.261 57.172 100.978 57.005 100.611 C 56.838 100.244 56.662 99.881 56.475 99.521 C 56.282 99.154 56.075 98.811 55.855 98.491 C 55.635 98.171 55.425 97.948 55.225 97.821 L 61.275 97.821 C 61.182 97.894 61.132 97.981 61.125 98.081 C 61.112 98.181 61.105 98.278 61.105 98.371 C 61.105 98.804 61.202 99.414 61.395 100.201 C 61.588 100.981 61.828 101.848 62.115 102.801 C 62.408 103.748 62.742 104.741 63.115 105.781 C 63.488 106.821 63.858 107.824 64.225 108.791 C 64.592 109.751 64.928 110.634 65.235 111.441 C 65.548 112.241 65.805 112.868 66.005 113.321 C 66.205 112.908 66.498 112.304 66.885 111.511 C 67.278 110.718 67.705 109.824 68.165 108.831 C 68.618 107.838 69.085 106.798 69.565 105.711 C 70.052 104.624 70.492 103.594 70.885 102.621 C 71.278 101.648 71.602 100.768 71.855 99.981 C 72.108 99.194 72.235 98.611 72.235 98.231 C 72.235 98.158 72.232 98.081 72.225 98.001 C 72.212 97.914 72.168 97.854 72.095 97.821 C 74.102 97.854 76.108 97.854 78.115 97.821 ZM 83.716 118.411 C 82.823 118.411 81.876 118.291 80.876 118.051 C 79.869 117.818 78.943 117.451 78.096 116.951 C 77.249 116.451 76.546 115.818 75.986 115.051 C 75.433 114.284 75.156 113.371 75.156 112.311 C 75.156 111.018 75.413 109.861 75.926 108.841 C 76.433 107.821 77.116 106.961 77.976 106.261 C 78.829 105.554 79.823 105.014 80.956 104.641 C 82.083 104.268 83.266 104.081 84.506 104.081 C 85.493 104.081 86.369 104.241 87.136 104.561 C 87.903 104.881 88.539 105.328 89.046 105.901 C 89.559 106.474 89.946 107.154 90.206 107.941 C 90.473 108.721 90.606 109.588 90.606 110.541 C 90.606 111.448 90.469 112.321 90.196 113.161 L 78.796 113.161 C 78.976 113.708 79.263 114.154 79.656 114.501 C 80.049 114.848 80.496 115.118 80.996 115.311 C 81.496 115.498 82.023 115.628 82.576 115.701 C 83.136 115.774 83.663 115.811 84.156 115.811 C 84.463 115.811 84.876 115.788 85.396 115.741 C 85.916 115.701 86.449 115.631 86.996 115.531 C 87.543 115.424 88.059 115.301 88.546 115.161 C 89.026 115.014 89.386 114.831 89.626 114.611 L 90.966 116.961 C 89.759 117.414 88.573 117.771 87.406 118.031 C 86.239 118.284 85.009 118.411 83.716 118.411 Z M 83.716 106.651 C 83.169 106.651 82.626 106.761 82.086 106.981 C 81.553 107.201 81.066 107.488 80.626 107.841 C 80.186 108.194 79.803 108.614 79.476 109.101 C 79.149 109.581 78.913 110.078 78.766 110.591 L 86.586 110.591 C 86.639 110.044 86.643 109.528 86.596 109.041 C 86.556 108.561 86.436 108.144 86.236 107.791 C 86.029 107.431 85.726 107.151 85.326 106.951 C 84.926 106.751 84.389 106.651 83.716 106.651 ZM 116.254 108.321 C 116.814 108.521 117.388 108.748 117.974 109.001 C 118.554 109.261 119.074 109.564 119.534 109.911 C 119.988 110.258 120.361 110.644 120.654 111.071 C 120.948 111.498 121.094 111.984 121.094 112.531 C 121.094 113.351 120.848 114.058 120.354 114.651 C 119.861 115.244 119.221 115.744 118.434 116.151 C 117.654 116.564 116.771 116.898 115.784 117.151 C 114.798 117.411 113.808 117.611 112.814 117.751 C 111.821 117.898 110.874 117.994 109.974 118.041 C 109.074 118.088 108.314 118.121 107.694 118.141 C 105.941 118.174 104.191 118.174 102.444 118.141 C 102.624 117.721 102.764 117.101 102.864 116.281 C 102.964 115.461 103.041 114.594 103.094 113.681 C 103.134 112.734 103.154 111.818 103.154 110.931 C 103.154 110.051 103.154 109.364 103.154 108.871 C 103.154 108.684 103.154 108.314 103.154 107.761 C 103.154 107.208 103.144 106.561 103.124 105.821 C 103.104 105.081 103.081 104.291 103.054 103.451 C 103.028 102.618 102.988 101.821 102.934 101.061 C 102.881 100.308 102.818 99.628 102.744 99.021 C 102.671 98.421 102.581 97.994 102.474 97.741 C 103.474 97.741 104.418 97.741 105.304 97.741 C 106.184 97.741 107.058 97.744 107.924 97.751 C 108.791 97.764 109.668 97.791 110.554 97.831 C 111.434 97.878 112.368 97.958 113.354 98.071 C 113.881 98.124 114.474 98.198 115.134 98.291 C 115.788 98.378 116.448 98.498 117.114 98.651 C 117.781 98.811 118.428 99.014 119.054 99.261 C 119.681 99.501 120.241 99.811 120.734 100.191 C 121.228 100.564 121.621 101.001 121.914 101.501 C 122.201 102.001 122.344 102.598 122.344 103.291 C 122.344 103.984 122.158 104.598 121.784 105.131 C 121.411 105.671 120.928 106.141 120.334 106.541 C 119.748 106.941 119.094 107.288 118.374 107.581 C 117.654 107.874 116.948 108.121 116.254 108.321 Z M 113.134 100.501 C 112.568 100.428 111.994 100.368 111.414 100.321 C 110.828 100.274 110.271 100.248 109.744 100.241 C 109.218 100.234 108.734 100.231 108.294 100.231 C 107.854 100.231 107.491 100.231 107.204 100.231 C 107.144 101.358 107.101 102.464 107.074 103.551 C 107.048 104.638 107.024 105.754 107.004 106.901 C 107.391 106.901 107.831 106.894 108.324 106.881 C 108.811 106.874 109.334 106.858 109.894 106.831 C 110.448 106.804 111.018 106.758 111.604 106.691 C 112.184 106.631 112.748 106.544 113.294 106.431 C 113.841 106.324 114.371 106.188 114.884 106.021 C 115.391 105.861 115.841 105.651 116.234 105.391 C 116.628 105.138 116.944 104.838 117.184 104.491 C 117.418 104.144 117.534 103.734 117.534 103.261 C 117.534 102.841 117.411 102.478 117.164 102.171 C 116.918 101.858 116.591 101.591 116.184 101.371 C 115.771 101.158 115.301 100.981 114.774 100.841 C 114.248 100.708 113.701 100.594 113.134 100.501 Z M 112.424 110.101 C 111.404 109.934 110.391 109.838 109.384 109.811 C 108.384 109.784 107.591 109.761 107.004 109.741 C 107.004 110.748 107.014 111.724 107.034 112.671 C 107.054 113.618 107.091 114.591 107.144 115.591 C 107.418 115.591 107.751 115.591 108.144 115.591 C 108.538 115.591 108.971 115.578 109.444 115.551 C 109.918 115.524 110.414 115.488 110.934 115.441 C 111.454 115.394 111.961 115.328 112.454 115.241 C 112.941 115.148 113.418 115.034 113.884 114.901 C 114.351 114.761 114.761 114.588 115.114 114.381 C 115.468 114.168 115.754 113.914 115.974 113.621 C 116.194 113.334 116.304 112.991 116.304 112.591 C 116.304 112.224 116.194 111.904 115.974 111.631 C 115.754 111.358 115.464 111.121 115.104 110.921 C 114.738 110.721 114.321 110.558 113.854 110.431 C 113.394 110.298 112.918 110.188 112.424 110.101 ZM 140.259 104.681 C 140.185 104.808 140.115 105.081 140.049 105.501 C 139.989 105.921 139.929 106.418 139.869 106.991 C 139.815 107.571 139.772 108.198 139.739 108.871 C 139.699 109.544 139.665 110.184 139.639 110.791 C 139.612 111.404 139.595 111.954 139.589 112.441 C 139.575 112.921 139.569 113.271 139.569 113.491 C 139.569 113.671 139.569 113.994 139.569 114.461 C 139.569 114.928 139.592 115.404 139.639 115.891 C 139.685 116.384 139.749 116.831 139.829 117.231 C 139.915 117.638 140.039 117.878 140.199 117.951 L 135.389 117.921 L 135.499 116.611 C 134.805 117.098 134.049 117.501 133.229 117.821 C 132.409 118.141 131.569 118.301 130.709 118.301 C 129.855 118.301 129.032 118.198 128.239 117.991 C 127.445 117.778 126.749 117.454 126.149 117.021 C 125.549 116.581 125.065 116.018 124.699 115.331 C 124.332 114.651 124.149 113.828 124.149 112.861 C 124.149 111.641 124.209 110.428 124.329 109.221 C 124.449 108.021 124.509 106.811 124.509 105.591 C 124.509 105.391 124.502 105.188 124.489 104.981 C 124.482 104.781 124.459 104.581 124.419 104.381 L 129.049 104.381 C 128.862 104.694 128.725 105.188 128.639 105.861 C 128.545 106.534 128.475 107.254 128.429 108.021 C 128.382 108.788 128.355 109.531 128.349 110.251 C 128.335 110.971 128.329 111.531 128.329 111.931 C 128.329 112.624 128.385 113.198 128.499 113.651 C 128.605 114.111 128.792 114.478 129.059 114.751 C 129.325 115.024 129.685 115.214 130.139 115.321 C 130.592 115.428 131.165 115.481 131.859 115.481 C 132.245 115.481 132.615 115.414 132.969 115.281 C 133.322 115.141 133.665 114.964 133.999 114.751 C 134.325 114.531 134.625 114.284 134.899 114.011 C 135.172 113.738 135.419 113.464 135.639 113.191 C 135.672 112.384 135.699 111.591 135.719 110.811 C 135.739 110.024 135.749 109.231 135.749 108.431 C 135.749 108.264 135.749 107.994 135.749 107.621 C 135.749 107.248 135.739 106.861 135.719 106.461 C 135.699 106.061 135.665 105.691 135.619 105.351 C 135.572 105.018 135.512 104.794 135.439 104.681 L 140.259 104.681 ZM 143.204 105.201 L 148.014 105.231 C 147.927 105.251 147.86 105.328 147.814 105.461 C 147.767 105.601 147.727 105.708 147.694 105.781 C 147.567 106.234 147.47 106.784 147.404 107.431 C 147.337 108.078 147.29 108.754 147.264 109.461 C 147.237 110.161 147.22 110.838 147.214 111.491 C 147.2 112.151 147.194 112.724 147.194 113.211 C 147.194 113.378 147.194 113.711 147.194 114.211 C 147.194 114.711 147.21 115.244 147.244 115.811 C 147.27 116.378 147.31 116.894 147.364 117.361 C 147.417 117.821 147.497 118.108 147.604 118.221 L 142.764 118.221 C 142.857 118.094 142.95 117.794 143.044 117.321 C 143.13 116.848 143.207 116.281 143.274 115.621 C 143.34 114.968 143.4 114.261 143.454 113.501 C 143.507 112.748 143.557 112.028 143.604 111.341 C 143.65 110.661 143.68 110.051 143.694 109.511 C 143.714 108.971 143.724 108.601 143.724 108.401 C 143.724 108.294 143.724 108.078 143.724 107.751 C 143.724 107.418 143.707 107.074 143.674 106.721 C 143.634 106.368 143.577 106.041 143.504 105.741 C 143.43 105.441 143.33 105.261 143.204 105.201 Z M 145.584 98.591 C 145.824 98.591 146.087 98.628 146.374 98.701 C 146.667 98.768 146.937 98.871 147.184 99.011 C 147.43 99.144 147.637 99.328 147.804 99.561 C 147.964 99.788 148.044 100.048 148.044 100.341 C 148.044 100.628 147.964 100.881 147.804 101.101 C 147.637 101.321 147.43 101.498 147.184 101.631 C 146.937 101.771 146.667 101.878 146.374 101.951 C 146.087 102.024 145.824 102.061 145.584 102.061 C 145.33 102.061 145.06 102.024 144.774 101.951 C 144.494 101.878 144.23 101.771 143.984 101.631 C 143.737 101.498 143.534 101.321 143.374 101.101 C 143.207 100.881 143.124 100.628 143.124 100.341 C 143.124 100.048 143.207 99.788 143.374 99.561 C 143.534 99.328 143.737 99.144 143.984 99.011 C 144.23 98.871 144.494 98.768 144.774 98.701 C 145.06 98.628 145.33 98.591 145.584 98.591 ZM 150.835 118.251 C 150.922 118.104 151.012 117.661 151.105 116.921 C 151.199 116.181 151.275 115.298 151.335 114.271 C 151.402 113.238 151.462 112.124 151.515 110.931 C 151.569 109.738 151.619 108.604 151.665 107.531 C 151.712 106.451 151.745 105.501 151.765 104.681 C 151.785 103.861 151.795 103.308 151.795 103.021 C 151.795 102.854 151.795 102.521 151.795 102.021 C 151.795 101.521 151.779 100.988 151.745 100.421 C 151.719 99.854 151.669 99.338 151.595 98.871 C 151.522 98.411 151.415 98.134 151.275 98.041 L 156.495 98.091 C 156.402 98.111 156.332 98.221 156.285 98.421 C 156.239 98.621 156.209 98.758 156.195 98.831 C 155.995 99.744 155.865 100.671 155.805 101.611 C 155.752 102.551 155.699 103.484 155.645 104.411 C 155.552 105.958 155.485 107.488 155.445 109.001 C 155.399 110.514 155.375 112.048 155.375 113.601 C 155.375 113.748 155.375 114.051 155.375 114.511 C 155.375 114.978 155.382 115.468 155.395 115.981 C 155.415 116.488 155.445 116.964 155.485 117.411 C 155.519 117.858 155.582 118.138 155.675 118.251 L 150.835 118.251 ZM 176.427 118.001 L 171.617 118.001 C 171.703 117.761 171.76 117.454 171.787 117.081 C 171.82 116.708 171.837 116.394 171.837 116.141 C 171.07 116.708 170.213 117.121 169.267 117.381 C 168.313 117.648 167.363 117.781 166.417 117.781 C 165.503 117.781 164.557 117.648 163.577 117.381 C 162.59 117.121 161.687 116.728 160.867 116.201 C 160.047 115.668 159.367 115.004 158.827 114.211 C 158.293 113.418 158.027 112.494 158.027 111.441 C 158.027 110.308 158.33 109.318 158.937 108.471 C 159.55 107.624 160.317 106.918 161.237 106.351 C 162.157 105.784 163.163 105.361 164.257 105.081 C 165.35 104.801 166.38 104.661 167.347 104.661 C 168.113 104.661 168.873 104.751 169.627 104.931 C 170.387 105.111 171.103 105.411 171.777 105.831 C 171.757 105.651 171.743 105.338 171.737 104.891 C 171.73 104.444 171.713 103.934 171.687 103.361 C 171.653 102.788 171.617 102.191 171.577 101.571 C 171.53 100.951 171.47 100.371 171.397 99.831 C 171.323 99.291 171.237 98.841 171.137 98.481 C 171.037 98.114 170.923 97.904 170.797 97.851 L 175.987 97.821 C 175.86 97.914 175.76 98.171 175.687 98.591 C 175.613 99.004 175.563 99.468 175.537 99.981 C 175.51 100.494 175.493 100.981 175.487 101.441 C 175.473 101.908 175.467 102.231 175.467 102.411 C 175.467 102.798 175.477 103.428 175.497 104.301 C 175.517 105.174 175.55 106.164 175.597 107.271 C 175.637 108.371 175.687 109.518 175.747 110.711 C 175.8 111.904 175.857 113.014 175.917 114.041 C 175.983 115.061 176.063 115.934 176.157 116.661 C 176.243 117.388 176.333 117.834 176.427 118.001 Z M 167.107 115.291 C 167.507 115.291 167.983 115.214 168.537 115.061 C 169.09 114.908 169.613 114.684 170.107 114.391 C 170.6 114.098 171.02 113.751 171.367 113.351 C 171.713 112.951 171.887 112.504 171.887 112.011 C 171.887 111.718 171.897 111.418 171.917 111.111 C 171.93 110.798 171.92 110.504 171.887 110.231 C 171.813 109.744 171.63 109.318 171.337 108.951 C 171.05 108.584 170.7 108.284 170.287 108.051 C 169.88 107.811 169.437 107.631 168.957 107.511 C 168.483 107.398 168.02 107.341 167.567 107.341 C 166.947 107.341 166.313 107.421 165.667 107.581 C 165.02 107.748 164.433 108.004 163.907 108.351 C 163.373 108.698 162.94 109.134 162.607 109.661 C 162.267 110.188 162.097 110.818 162.097 111.551 C 162.097 112.224 162.253 112.798 162.567 113.271 C 162.873 113.744 163.263 114.131 163.737 114.431 C 164.21 114.731 164.743 114.951 165.337 115.091 C 165.93 115.224 166.52 115.291 167.107 115.291 ZM 207.455 106.841 C 207.768 106.421 208.075 105.934 208.375 105.381 C 208.675 104.828 208.825 104.268 208.825 103.701 C 208.825 103.061 208.612 102.538 208.185 102.131 C 207.752 101.718 207.235 101.394 206.635 101.161 C 206.035 100.921 205.402 100.754 204.735 100.661 C 204.068 100.574 203.488 100.531 202.995 100.531 C 201.815 100.531 200.618 100.748 199.405 101.181 C 198.192 101.621 197.092 102.234 196.105 103.021 C 195.125 103.801 194.318 104.728 193.685 105.801 C 193.058 106.881 192.745 108.058 192.745 109.331 C 192.745 110.098 192.885 110.774 193.165 111.361 C 193.452 111.941 193.835 112.441 194.315 112.861 C 194.802 113.281 195.355 113.638 195.975 113.931 C 196.595 114.218 197.245 114.444 197.925 114.611 C 198.612 114.778 199.302 114.894 199.995 114.961 C 200.688 115.034 201.335 115.071 201.935 115.071 C 203.428 115.071 204.915 114.944 206.395 114.691 C 207.868 114.438 209.335 114.111 210.795 113.711 L 211.855 116.551 C 211.075 116.804 210.252 117.024 209.385 117.211 C 208.518 117.391 207.642 117.534 206.755 117.641 C 205.875 117.754 204.992 117.838 204.105 117.891 C 203.225 117.944 202.375 117.971 201.555 117.971 C 200.748 117.971 199.848 117.918 198.855 117.811 C 197.862 117.698 196.865 117.521 195.865 117.281 C 194.858 117.034 193.878 116.708 192.925 116.301 C 191.965 115.901 191.112 115.401 190.365 114.801 C 189.618 114.201 189.022 113.501 188.575 112.701 C 188.128 111.894 187.905 110.971 187.905 109.931 C 187.905 108.678 188.148 107.498 188.635 106.391 C 189.115 105.291 189.755 104.288 190.555 103.381 C 191.362 102.481 192.302 101.681 193.375 100.981 C 194.448 100.281 195.578 99.688 196.765 99.201 C 197.952 98.721 199.155 98.358 200.375 98.111 C 201.595 97.864 202.772 97.741 203.905 97.741 C 204.958 97.741 206.038 97.821 207.145 97.981 C 208.245 98.148 209.248 98.464 210.155 98.931 C 211.055 99.391 211.792 100.028 212.365 100.841 C 212.938 101.654 213.225 102.718 213.225 104.031 C 213.225 104.504 213.188 104.978 213.115 105.451 C 213.042 105.924 212.932 106.388 212.785 106.841 L 207.455 106.841 ZM 231.163 104.681 C 231.09 104.808 231.02 105.081 230.953 105.501 C 230.893 105.921 230.833 106.418 230.773 106.991 C 230.72 107.571 230.677 108.198 230.643 108.871 C 230.603 109.544 230.57 110.184 230.543 110.791 C 230.517 111.404 230.5 111.954 230.493 112.441 C 230.48 112.921 230.473 113.271 230.473 113.491 C 230.473 113.671 230.473 113.994 230.473 114.461 C 230.473 114.928 230.497 115.404 230.543 115.891 C 230.59 116.384 230.653 116.831 230.733 117.231 C 230.82 117.638 230.943 117.878 231.103 117.951 L 226.293 117.921 L 226.403 116.611 C 225.71 117.098 224.953 117.501 224.133 117.821 C 223.313 118.141 222.473 118.301 221.613 118.301 C 220.76 118.301 219.937 118.198 219.143 117.991 C 218.35 117.778 217.653 117.454 217.053 117.021 C 216.453 116.581 215.97 116.018 215.603 115.331 C 215.237 114.651 215.053 113.828 215.053 112.861 C 215.053 111.641 215.113 110.428 215.233 109.221 C 215.353 108.021 215.413 106.811 215.413 105.591 C 215.413 105.391 215.407 105.188 215.393 104.981 C 215.387 104.781 215.363 104.581 215.323 104.381 L 219.953 104.381 C 219.767 104.694 219.63 105.188 219.543 105.861 C 219.45 106.534 219.38 107.254 219.333 108.021 C 219.287 108.788 219.26 109.531 219.253 110.251 C 219.24 110.971 219.233 111.531 219.233 111.931 C 219.233 112.624 219.29 113.198 219.403 113.651 C 219.51 114.111 219.697 114.478 219.963 114.751 C 220.23 115.024 220.59 115.214 221.043 115.321 C 221.497 115.428 222.07 115.481 222.763 115.481 C 223.15 115.481 223.52 115.414 223.873 115.281 C 224.227 115.141 224.57 114.964 224.903 114.751 C 225.23 114.531 225.53 114.284 225.803 114.011 C 226.077 113.738 226.323 113.464 226.543 113.191 C 226.577 112.384 226.603 111.591 226.623 110.811 C 226.643 110.024 226.653 109.231 226.653 108.431 C 226.653 108.264 226.653 107.994 226.653 107.621 C 226.653 107.248 226.643 106.861 226.623 106.461 C 226.603 106.061 226.57 105.691 226.523 105.351 C 226.477 105.018 226.417 104.794 226.343 104.681 L 231.163 104.681 ZM 244.638 109.931 C 244.745 109.624 244.835 109.301 244.908 108.961 C 244.982 108.628 245.018 108.288 245.018 107.941 C 245.018 107.174 244.815 106.604 244.408 106.231 C 243.995 105.858 243.405 105.671 242.638 105.671 C 242.205 105.671 241.692 105.721 241.098 105.821 C 240.505 105.921 239.945 106.088 239.418 106.321 C 238.885 106.561 238.432 106.871 238.058 107.251 C 237.685 107.638 237.498 108.114 237.498 108.681 C 237.498 109.094 237.705 109.444 238.118 109.731 C 238.525 110.011 239.002 110.238 239.548 110.411 C 240.095 110.584 240.648 110.718 241.208 110.811 C 241.762 110.904 242.185 110.978 242.478 111.031 C 242.932 111.118 243.512 111.231 244.218 111.371 C 244.918 111.504 245.595 111.704 246.248 111.971 C 246.908 112.238 247.475 112.568 247.948 112.961 C 248.422 113.348 248.658 113.844 248.658 114.451 C 248.658 115.124 248.395 115.688 247.868 116.141 C 247.335 116.594 246.702 116.958 245.968 117.231 C 245.228 117.504 244.458 117.701 243.658 117.821 C 242.852 117.941 242.185 118.001 241.658 118.001 C 240.565 118.001 239.482 117.924 238.408 117.771 C 237.328 117.618 236.268 117.358 235.228 116.991 C 235.102 116.938 234.892 116.851 234.598 116.731 C 234.312 116.611 234.008 116.484 233.688 116.351 C 233.368 116.211 233.072 116.088 232.798 115.981 C 232.525 115.868 232.352 115.811 232.278 115.811 C 232.312 115.798 232.438 115.688 232.658 115.481 C 232.878 115.281 233.112 115.058 233.358 114.811 C 233.605 114.571 233.828 114.341 234.028 114.121 C 234.228 113.901 234.338 113.764 234.358 113.711 C 235.285 114.404 236.318 114.914 237.458 115.241 C 238.598 115.568 239.742 115.731 240.888 115.731 C 241.015 115.731 241.262 115.718 241.628 115.691 C 241.995 115.664 242.375 115.614 242.768 115.541 C 243.155 115.468 243.505 115.368 243.818 115.241 C 244.125 115.114 244.278 114.951 244.278 114.751 C 244.278 114.458 244.025 114.221 243.518 114.041 C 243.005 113.854 242.362 113.681 241.588 113.521 C 240.815 113.354 239.982 113.171 239.088 112.971 C 238.195 112.771 237.362 112.511 236.588 112.191 C 235.808 111.871 235.165 111.474 234.658 111.001 C 234.145 110.528 233.888 109.918 233.888 109.171 C 233.888 108.078 234.185 107.144 234.778 106.371 C 235.372 105.591 236.115 104.961 237.008 104.481 C 237.902 103.994 238.868 103.644 239.908 103.431 C 240.948 103.211 241.922 103.101 242.828 103.101 C 243.582 103.101 244.302 103.161 244.988 103.281 C 245.682 103.394 246.295 103.608 246.828 103.921 C 247.355 104.228 247.778 104.654 248.098 105.201 C 248.418 105.748 248.578 106.461 248.578 107.341 C 248.578 107.774 248.545 108.211 248.478 108.651 C 248.418 109.084 248.342 109.511 248.248 109.931 L 244.638 109.931 ZM 257.596 108.131 C 257.562 109.058 257.526 109.991 257.486 110.931 C 257.452 111.871 257.436 112.804 257.436 113.731 C 257.436 114.044 257.499 114.311 257.626 114.531 C 257.752 114.751 257.919 114.928 258.126 115.061 C 258.339 115.201 258.576 115.298 258.836 115.351 C 259.102 115.404 259.372 115.431 259.646 115.431 C 259.992 115.431 260.336 115.404 260.676 115.351 C 261.009 115.298 261.339 115.224 261.666 115.131 L 261.236 118.051 C 260.176 118.051 259.182 118.021 258.256 117.961 C 257.322 117.894 256.509 117.698 255.816 117.371 C 255.122 117.044 254.576 116.521 254.176 115.801 C 253.776 115.081 253.576 114.064 253.576 112.751 C 253.576 111.984 253.599 111.214 253.646 110.441 C 253.692 109.668 253.752 108.898 253.826 108.131 L 249.776 108.161 L 249.966 105.481 C 250.626 105.534 251.292 105.564 251.966 105.571 C 252.639 105.584 253.312 105.591 253.986 105.591 C 254.026 105.058 254.052 104.541 254.066 104.041 C 254.086 103.541 254.096 103.028 254.096 102.501 C 254.096 102.388 254.096 102.168 254.096 101.841 C 254.096 101.514 254.079 101.171 254.046 100.811 C 254.006 100.458 253.949 100.134 253.876 99.841 C 253.802 99.554 253.702 99.381 253.576 99.321 L 258.606 99.411 C 258.532 99.411 258.479 99.464 258.446 99.571 C 258.406 99.678 258.369 99.761 258.336 99.821 C 258.222 100.168 258.136 100.584 258.076 101.071 C 258.009 101.564 257.952 102.081 257.906 102.621 C 257.866 103.161 257.832 103.681 257.806 104.181 C 257.772 104.681 257.749 105.121 257.736 105.501 C 258.356 105.468 258.982 105.438 259.616 105.411 C 260.256 105.384 260.886 105.298 261.506 105.151 L 261.506 108.101 L 257.596 108.131 ZM 272.883 104.821 C 273.883 104.821 274.939 104.961 276.053 105.241 C 277.166 105.528 278.176 105.958 279.083 106.531 C 279.996 107.104 280.753 107.828 281.353 108.701 C 281.959 109.581 282.263 110.611 282.263 111.791 C 282.263 112.578 282.116 113.284 281.823 113.911 C 281.529 114.544 281.143 115.101 280.663 115.581 C 280.176 116.061 279.613 116.481 278.973 116.841 C 278.339 117.194 277.669 117.484 276.963 117.711 C 276.263 117.938 275.549 118.108 274.823 118.221 C 274.089 118.328 273.406 118.381 272.773 118.381 C 271.733 118.381 270.666 118.264 269.573 118.031 C 268.479 117.791 267.479 117.408 266.573 116.881 C 265.673 116.354 264.936 115.664 264.363 114.811 C 263.789 113.964 263.503 112.921 263.503 111.681 C 263.503 110.461 263.799 109.418 264.393 108.551 C 264.986 107.684 265.736 106.974 266.643 106.421 C 267.556 105.868 268.563 105.461 269.663 105.201 C 270.769 104.948 271.843 104.821 272.883 104.821 Z M 267.603 111.661 C 267.603 112.368 267.763 112.968 268.083 113.461 C 268.403 113.954 268.813 114.354 269.313 114.661 C 269.813 114.974 270.373 115.198 270.993 115.331 C 271.613 115.471 272.223 115.541 272.823 115.541 C 273.389 115.541 273.983 115.468 274.603 115.321 C 275.223 115.174 275.796 114.948 276.323 114.641 C 276.849 114.328 277.286 113.931 277.633 113.451 C 277.979 112.964 278.153 112.384 278.153 111.711 C 278.153 111.038 277.989 110.451 277.663 109.951 C 277.336 109.451 276.916 109.031 276.403 108.691 C 275.896 108.351 275.326 108.101 274.693 107.941 C 274.066 107.774 273.463 107.691 272.883 107.691 C 272.276 107.691 271.663 107.768 271.043 107.921 C 270.423 108.081 269.859 108.318 269.353 108.631 C 268.839 108.951 268.419 109.364 268.093 109.871 C 267.766 110.371 267.603 110.968 267.603 111.661 ZM 309.676 118.001 L 304.896 118.001 C 305.076 117.674 305.226 117.211 305.346 116.611 C 305.466 116.004 305.556 115.374 305.616 114.721 C 305.683 114.061 305.729 113.418 305.756 112.791 C 305.783 112.164 305.796 111.658 305.796 111.271 C 305.796 110.798 305.756 110.331 305.676 109.871 C 305.596 109.404 305.456 108.991 305.256 108.631 C 305.049 108.278 304.766 107.991 304.406 107.771 C 304.039 107.558 303.573 107.451 303.006 107.451 C 302.313 107.451 301.656 107.631 301.036 107.991 C 300.416 108.358 299.869 108.778 299.396 109.251 C 299.456 109.671 299.486 110.071 299.486 110.451 C 299.486 111.271 299.476 112.084 299.456 112.891 C 299.436 113.691 299.426 114.501 299.426 115.321 C 299.426 115.774 299.429 116.224 299.436 116.671 C 299.449 117.118 299.493 117.561 299.566 118.001 L 294.776 118.001 C 294.963 117.674 295.113 117.211 295.226 116.611 C 295.346 116.004 295.443 115.374 295.516 114.721 C 295.589 114.061 295.636 113.418 295.656 112.791 C 295.669 112.164 295.676 111.658 295.676 111.271 C 295.676 110.798 295.636 110.331 295.556 109.871 C 295.476 109.404 295.336 108.991 295.136 108.631 C 294.936 108.278 294.653 107.991 294.286 107.771 C 293.919 107.558 293.456 107.451 292.896 107.451 C 292.163 107.451 291.473 107.651 290.826 108.051 C 290.179 108.451 289.619 108.914 289.146 109.441 C 289.113 110.281 289.086 111.121 289.066 111.961 C 289.046 112.794 289.036 113.641 289.036 114.501 C 289.036 114.628 289.036 114.878 289.036 115.251 C 289.036 115.624 289.046 116.021 289.066 116.441 C 289.086 116.861 289.113 117.248 289.146 117.601 C 289.179 117.961 289.243 118.178 289.336 118.251 L 284.496 118.251 C 284.569 118.158 284.643 117.898 284.716 117.471 C 284.789 117.038 284.853 116.528 284.906 115.941 C 284.959 115.348 285.006 114.708 285.046 114.021 C 285.079 113.341 285.109 112.691 285.136 112.071 C 285.163 111.451 285.183 110.904 285.196 110.431 C 285.203 109.951 285.206 109.621 285.206 109.441 C 285.206 109.294 285.203 108.991 285.196 108.531 C 285.183 108.064 285.159 107.581 285.126 107.081 C 285.093 106.574 285.033 106.114 284.946 105.701 C 284.866 105.281 284.743 105.041 284.576 104.981 L 289.366 105.011 C 289.326 105.211 289.306 105.424 289.306 105.651 C 289.306 105.884 289.299 106.108 289.286 106.321 C 289.959 105.834 290.709 105.431 291.536 105.111 C 292.369 104.791 293.213 104.631 294.066 104.631 C 294.979 104.631 295.843 104.818 296.656 105.191 C 297.463 105.564 298.113 106.151 298.606 106.951 C 299.319 106.278 300.179 105.724 301.186 105.291 C 302.199 104.851 303.199 104.631 304.186 104.631 C 305.059 104.631 305.833 104.771 306.506 105.051 C 307.179 105.338 307.746 105.741 308.206 106.261 C 308.659 106.781 309.006 107.394 309.246 108.101 C 309.479 108.814 309.596 109.598 309.596 110.451 C 309.596 111.271 309.583 112.084 309.556 112.891 C 309.529 113.691 309.516 114.501 309.516 115.321 C 309.516 115.774 309.526 116.224 309.546 116.671 C 309.566 117.118 309.609 117.561 309.676 118.001 ZM 354.766 97.821 C 354.546 97.948 354.252 98.294 353.886 98.861 C 353.526 99.428 353.116 100.134 352.656 100.981 C 352.202 101.828 351.716 102.784 351.196 103.851 C 350.676 104.918 350.152 106.014 349.626 107.141 C 349.099 108.274 348.579 109.408 348.066 110.541 C 347.552 111.668 347.082 112.718 346.656 113.691 C 346.229 114.671 345.856 115.538 345.536 116.291 C 345.216 117.051 344.976 117.621 344.816 118.001 L 340.056 118.001 C 339.436 116.121 338.802 114.261 338.156 112.421 C 337.509 110.581 336.839 108.731 336.146 106.871 C 335.412 108.711 334.722 110.558 334.076 112.411 C 333.429 114.258 332.806 116.121 332.206 118.001 L 327.446 118.001 C 327.286 117.621 327.039 117.051 326.706 116.291 C 326.379 115.538 326.002 114.671 325.576 113.691 C 325.149 112.718 324.686 111.671 324.186 110.551 C 323.679 109.431 323.162 108.304 322.636 107.171 C 322.109 106.044 321.586 104.948 321.066 103.881 C 320.546 102.814 320.059 101.858 319.606 101.011 C 319.146 100.158 318.732 99.451 318.366 98.891 C 318.006 98.324 317.716 97.978 317.496 97.851 C 318.496 97.851 319.492 97.854 320.486 97.861 C 321.479 97.868 322.479 97.864 323.486 97.851 C 323.432 97.884 323.399 97.944 323.386 98.031 C 323.379 98.111 323.376 98.178 323.376 98.231 C 323.376 98.631 323.499 99.228 323.746 100.021 C 323.992 100.814 324.312 101.708 324.706 102.701 C 325.092 103.694 325.529 104.744 326.016 105.851 C 326.496 106.951 326.969 108.001 327.436 109.001 C 327.902 110.008 328.329 110.914 328.716 111.721 C 329.109 112.534 329.416 113.151 329.636 113.571 C 330.456 111.584 331.246 109.588 332.006 107.581 C 332.759 105.574 333.436 103.534 334.036 101.461 C 333.949 101.261 333.822 100.978 333.656 100.611 C 333.489 100.244 333.312 99.881 333.126 99.521 C 332.932 99.154 332.726 98.811 332.506 98.491 C 332.286 98.171 332.076 97.948 331.876 97.821 L 337.926 97.821 C 337.832 97.894 337.782 97.981 337.776 98.081 C 337.762 98.181 337.756 98.278 337.756 98.371 C 337.756 98.804 337.852 99.414 338.046 100.201 C 338.239 100.981 338.479 101.848 338.766 102.801 C 339.059 103.748 339.392 104.741 339.766 105.781 C 340.139 106.821 340.509 107.824 340.876 108.791 C 341.242 109.751 341.579 110.634 341.886 111.441 C 342.199 112.241 342.456 112.868 342.656 113.321 C 342.856 112.908 343.149 112.304 343.536 111.511 C 343.929 110.718 344.356 109.824 344.816 108.831 C 345.269 107.838 345.736 106.798 346.216 105.711 C 346.702 104.624 347.142 103.594 347.536 102.621 C 347.929 101.648 348.252 100.768 348.506 99.981 C 348.759 99.194 348.886 98.611 348.886 98.231 C 348.886 98.158 348.882 98.081 348.876 98.001 C 348.862 97.914 348.819 97.854 348.746 97.821 C 350.752 97.854 352.759 97.854 354.766 97.821 ZM 360.367 118.411 C 359.473 118.411 358.527 118.291 357.527 118.051 C 356.52 117.818 355.593 117.451 354.747 116.951 C 353.9 116.451 353.197 115.818 352.637 115.051 C 352.083 114.284 351.807 113.371 351.807 112.311 C 351.807 111.018 352.063 109.861 352.577 108.841 C 353.083 107.821 353.767 106.961 354.627 106.261 C 355.48 105.554 356.473 105.014 357.607 104.641 C 358.733 104.268 359.917 104.081 361.157 104.081 C 362.143 104.081 363.02 104.241 363.787 104.561 C 364.553 104.881 365.19 105.328 365.697 105.901 C 366.21 106.474 366.597 107.154 366.857 107.941 C 367.123 108.721 367.257 109.588 367.257 110.541 C 367.257 111.448 367.12 112.321 366.847 113.161 L 355.447 113.161 C 355.627 113.708 355.913 114.154 356.307 114.501 C 356.7 114.848 357.147 115.118 357.647 115.311 C 358.147 115.498 358.673 115.628 359.227 115.701 C 359.787 115.774 360.313 115.811 360.807 115.811 C 361.113 115.811 361.527 115.788 362.047 115.741 C 362.567 115.701 363.1 115.631 363.647 115.531 C 364.193 115.424 364.71 115.301 365.197 115.161 C 365.677 115.014 366.037 114.831 366.277 114.611 L 367.617 116.961 C 366.41 117.414 365.223 117.771 364.057 118.031 C 362.89 118.284 361.66 118.411 360.367 118.411 Z M 360.367 106.651 C 359.82 106.651 359.277 106.761 358.737 106.981 C 358.203 107.201 357.717 107.488 357.277 107.841 C 356.837 108.194 356.453 108.614 356.127 109.101 C 355.8 109.581 355.563 110.078 355.417 110.591 L 363.237 110.591 C 363.29 110.044 363.293 109.528 363.247 109.041 C 363.207 108.561 363.087 108.144 362.887 107.791 C 362.68 107.431 362.377 107.151 361.977 106.951 C 361.577 106.751 361.04 106.651 360.367 106.651 ZM 379.617 104.251 C 380.597 104.251 381.567 104.381 382.527 104.641 C 383.481 104.908 384.341 105.304 385.107 105.831 C 385.874 106.358 386.494 107.034 386.967 107.861 C 387.441 108.681 387.677 109.638 387.677 110.731 C 387.677 111.478 387.524 112.174 387.217 112.821 C 386.904 113.468 386.494 114.054 385.987 114.581 C 385.474 115.108 384.904 115.574 384.277 115.981 C 383.651 116.381 383.027 116.698 382.407 116.931 C 381.107 117.424 379.774 117.671 378.407 117.671 C 377.641 117.671 376.891 117.591 376.157 117.431 C 375.417 117.264 374.711 116.991 374.037 116.611 C 374.057 116.811 374.074 117.041 374.087 117.301 C 374.107 117.568 374.164 117.801 374.257 118.001 L 369.437 118.001 C 369.531 117.854 369.617 117.424 369.697 116.711 C 369.784 116.004 369.864 115.148 369.937 114.141 C 370.011 113.141 370.074 112.058 370.127 110.891 C 370.181 109.724 370.231 108.604 370.277 107.531 C 370.324 106.451 370.354 105.484 370.367 104.631 C 370.387 103.771 370.397 103.151 370.397 102.771 C 370.397 102.571 370.397 102.221 370.397 101.721 C 370.397 101.214 370.381 100.688 370.347 100.141 C 370.307 99.594 370.251 99.094 370.177 98.641 C 370.104 98.188 370.004 97.914 369.877 97.821 L 375.077 97.851 C 374.951 97.904 374.841 98.114 374.747 98.481 C 374.654 98.841 374.571 99.291 374.497 99.831 C 374.424 100.371 374.367 100.958 374.327 101.591 C 374.281 102.231 374.237 102.838 374.197 103.411 C 374.164 103.984 374.137 104.501 374.117 104.961 C 374.097 105.414 374.087 105.731 374.087 105.911 C 374.894 105.364 375.771 104.951 376.717 104.671 C 377.664 104.391 378.631 104.251 379.617 104.251 Z M 378.387 114.941 C 379.021 114.941 379.654 114.848 380.287 114.661 C 380.914 114.481 381.484 114.208 381.997 113.841 C 382.504 113.481 382.914 113.031 383.227 112.491 C 383.534 111.951 383.687 111.328 383.687 110.621 C 383.687 109.961 383.547 109.391 383.267 108.911 C 382.981 108.424 382.611 108.024 382.157 107.711 C 381.704 107.391 381.187 107.158 380.607 107.011 C 380.034 106.864 379.457 106.791 378.877 106.791 C 378.351 106.791 377.804 106.874 377.237 107.041 C 376.671 107.201 376.147 107.438 375.667 107.751 C 375.181 108.058 374.784 108.438 374.477 108.891 C 374.164 109.351 373.997 109.881 373.977 110.481 L 373.977 111.551 C 373.977 112.131 374.111 112.634 374.377 113.061 C 374.644 113.494 374.991 113.848 375.417 114.121 C 375.844 114.394 376.317 114.598 376.837 114.731 C 377.357 114.871 377.874 114.941 378.387 114.941 ZM 400.447 109.931 C 400.554 109.624 400.644 109.301 400.717 108.961 C 400.791 108.628 400.827 108.288 400.827 107.941 C 400.827 107.174 400.624 106.604 400.217 106.231 C 399.804 105.858 399.214 105.671 398.447 105.671 C 398.014 105.671 397.501 105.721 396.907 105.821 C 396.314 105.921 395.754 106.088 395.227 106.321 C 394.694 106.561 394.241 106.871 393.867 107.251 C 393.494 107.638 393.307 108.114 393.307 108.681 C 393.307 109.094 393.514 109.444 393.927 109.731 C 394.334 110.011 394.811 110.238 395.357 110.411 C 395.904 110.584 396.457 110.718 397.017 110.811 C 397.571 110.904 397.994 110.978 398.287 111.031 C 398.741 111.118 399.321 111.231 400.027 111.371 C 400.727 111.504 401.404 111.704 402.057 111.971 C 402.717 112.238 403.284 112.568 403.757 112.961 C 404.231 113.348 404.467 113.844 404.467 114.451 C 404.467 115.124 404.204 115.688 403.677 116.141 C 403.144 116.594 402.511 116.958 401.777 117.231 C 401.037 117.504 400.267 117.701 399.467 117.821 C 398.661 117.941 397.994 118.001 397.467 118.001 C 396.374 118.001 395.291 117.924 394.217 117.771 C 393.137 117.618 392.077 117.358 391.037 116.991 C 390.911 116.938 390.701 116.851 390.407 116.731 C 390.121 116.611 389.817 116.484 389.497 116.351 C 389.177 116.211 388.881 116.088 388.607 115.981 C 388.334 115.868 388.161 115.811 388.087 115.811 C 388.121 115.798 388.247 115.688 388.467 115.481 C 388.687 115.281 388.921 115.058 389.167 114.811 C 389.414 114.571 389.637 114.341 389.837 114.121 C 390.037 113.901 390.147 113.764 390.167 113.711 C 391.094 114.404 392.127 114.914 393.267 115.241 C 394.407 115.568 395.551 115.731 396.697 115.731 C 396.824 115.731 397.071 115.718 397.437 115.691 C 397.804 115.664 398.184 115.614 398.577 115.541 C 398.964 115.468 399.314 115.368 399.627 115.241 C 399.934 115.114 400.087 114.951 400.087 114.751 C 400.087 114.458 399.834 114.221 399.327 114.041 C 398.814 113.854 398.171 113.681 397.397 113.521 C 396.624 113.354 395.791 113.171 394.897 112.971 C 394.004 112.771 393.171 112.511 392.397 112.191 C 391.617 111.871 390.974 111.474 390.467 111.001 C 389.954 110.528 389.697 109.918 389.697 109.171 C 389.697 108.078 389.994 107.144 390.587 106.371 C 391.181 105.591 391.924 104.961 392.817 104.481 C 393.711 103.994 394.677 103.644 395.717 103.431 C 396.757 103.211 397.731 103.101 398.637 103.101 C 399.391 103.101 400.111 103.161 400.797 103.281 C 401.491 103.394 402.104 103.608 402.637 103.921 C 403.164 104.228 403.587 104.654 403.907 105.201 C 404.227 105.748 404.387 106.461 404.387 107.341 C 404.387 107.774 404.354 108.211 404.287 108.651 C 404.227 109.084 404.151 109.511 404.057 109.931 L 400.447 109.931 ZM 407.415 105.201 L 412.225 105.231 C 412.138 105.251 412.071 105.328 412.025 105.461 C 411.978 105.601 411.938 105.708 411.905 105.781 C 411.778 106.234 411.681 106.784 411.615 107.431 C 411.548 108.078 411.501 108.754 411.475 109.461 C 411.448 110.161 411.431 110.838 411.425 111.491 C 411.411 112.151 411.405 112.724 411.405 113.211 C 411.405 113.378 411.405 113.711 411.405 114.211 C 411.405 114.711 411.421 115.244 411.455 115.811 C 411.481 116.378 411.521 116.894 411.575 117.361 C 411.628 117.821 411.708 118.108 411.815 118.221 L 406.975 118.221 C 407.068 118.094 407.161 117.794 407.255 117.321 C 407.341 116.848 407.418 116.281 407.485 115.621 C 407.551 114.968 407.611 114.261 407.665 113.501 C 407.718 112.748 407.768 112.028 407.815 111.341 C 407.861 110.661 407.891 110.051 407.905 109.511 C 407.925 108.971 407.935 108.601 407.935 108.401 C 407.935 108.294 407.935 108.078 407.935 107.751 C 407.935 107.418 407.918 107.074 407.885 106.721 C 407.845 106.368 407.788 106.041 407.715 105.741 C 407.641 105.441 407.541 105.261 407.415 105.201 Z M 409.795 98.591 C 410.035 98.591 410.298 98.628 410.585 98.701 C 410.878 98.768 411.148 98.871 411.395 99.011 C 411.641 99.144 411.848 99.328 412.015 99.561 C 412.175 99.788 412.255 100.048 412.255 100.341 C 412.255 100.628 412.175 100.881 412.015 101.101 C 411.848 101.321 411.641 101.498 411.395 101.631 C 411.148 101.771 410.878 101.878 410.585 101.951 C 410.298 102.024 410.035 102.061 409.795 102.061 C 409.541 102.061 409.271 102.024 408.985 101.951 C 408.705 101.878 408.441 101.771 408.195 101.631 C 407.948 101.498 407.745 101.321 407.585 101.101 C 407.418 100.881 407.335 100.628 407.335 100.341 C 407.335 100.048 407.418 99.788 407.585 99.561 C 407.745 99.328 407.948 99.144 408.195 99.011 C 408.441 98.871 408.705 98.768 408.985 98.701 C 409.271 98.628 409.541 98.591 409.795 98.591 ZM 421.197 108.131 C 421.163 109.058 421.127 109.991 421.087 110.931 C 421.053 111.871 421.037 112.804 421.037 113.731 C 421.037 114.044 421.1 114.311 421.227 114.531 C 421.353 114.751 421.52 114.928 421.727 115.061 C 421.94 115.201 422.177 115.298 422.437 115.351 C 422.703 115.404 422.973 115.431 423.247 115.431 C 423.593 115.431 423.937 115.404 424.277 115.351 C 424.61 115.298 424.94 115.224 425.267 115.131 L 424.837 118.051 C 423.777 118.051 422.783 118.021 421.857 117.961 C 420.923 117.894 420.11 117.698 419.417 117.371 C 418.723 117.044 418.177 116.521 417.777 115.801 C 417.377 115.081 417.177 114.064 417.177 112.751 C 417.177 111.984 417.2 111.214 417.247 110.441 C 417.293 109.668 417.353 108.898 417.427 108.131 L 413.377 108.161 L 413.567 105.481 C 414.227 105.534 414.893 105.564 415.567 105.571 C 416.24 105.584 416.913 105.591 417.587 105.591 C 417.627 105.058 417.653 104.541 417.667 104.041 C 417.687 103.541 417.697 103.028 417.697 102.501 C 417.697 102.388 417.697 102.168 417.697 101.841 C 417.697 101.514 417.68 101.171 417.647 100.811 C 417.607 100.458 417.55 100.134 417.477 99.841 C 417.403 99.554 417.303 99.381 417.177 99.321 L 422.207 99.411 C 422.133 99.411 422.08 99.464 422.047 99.571 C 422.007 99.678 421.97 99.761 421.937 99.821 C 421.823 100.168 421.737 100.584 421.677 101.071 C 421.61 101.564 421.553 102.081 421.507 102.621 C 421.467 103.161 421.433 103.681 421.407 104.181 C 421.373 104.681 421.35 105.121 421.337 105.501 C 421.957 105.468 422.583 105.438 423.217 105.411 C 423.857 105.384 424.487 105.298 425.107 105.151 L 425.107 108.101 L 421.197 108.131 ZM 435.524 118.411 C 434.63 118.411 433.684 118.291 432.684 118.051 C 431.677 117.818 430.75 117.451 429.904 116.951 C 429.057 116.451 428.354 115.818 427.794 115.051 C 427.24 114.284 426.964 113.371 426.964 112.311 C 426.964 111.018 427.22 109.861 427.734 108.841 C 428.24 107.821 428.924 106.961 429.784 106.261 C 430.637 105.554 431.63 105.014 432.764 104.641 C 433.89 104.268 435.074 104.081 436.314 104.081 C 437.3 104.081 438.177 104.241 438.944 104.561 C 439.71 104.881 440.347 105.328 440.854 105.901 C 441.367 106.474 441.754 107.154 442.014 107.941 C 442.28 108.721 442.414 109.588 442.414 110.541 C 442.414 111.448 442.277 112.321 442.004 113.161 L 430.604 113.161 C 430.784 113.708 431.07 114.154 431.464 114.501 C 431.857 114.848 432.304 115.118 432.804 115.311 C 433.304 115.498 433.83 115.628 434.384 115.701 C 434.944 115.774 435.47 115.811 435.964 115.811 C 436.27 115.811 436.684 115.788 437.204 115.741 C 437.724 115.701 438.257 115.631 438.804 115.531 C 439.35 115.424 439.867 115.301 440.354 115.161 C 440.834 115.014 441.194 114.831 441.434 114.611 L 442.774 116.961 C 441.567 117.414 440.38 117.771 439.214 118.031 C 438.047 118.284 436.817 118.411 435.524 118.411 Z M 435.524 106.651 C 434.977 106.651 434.434 106.761 433.894 106.981 C 433.36 107.201 432.874 107.488 432.434 107.841 C 431.994 108.194 431.61 108.614 431.284 109.101 C 430.957 109.581 430.72 110.078 430.574 110.591 L 438.394 110.591 C 438.447 110.044 438.45 109.528 438.404 109.041 C 438.364 108.561 438.244 108.144 438.044 107.791 C 437.837 107.431 437.534 107.151 437.134 106.951 C 436.734 106.751 436.197 106.651 435.524 106.651 ZM 455.974 109.931 C 456.081 109.624 456.171 109.301 456.244 108.961 C 456.318 108.628 456.354 108.288 456.354 107.941 C 456.354 107.174 456.151 106.604 455.744 106.231 C 455.331 105.858 454.741 105.671 453.974 105.671 C 453.541 105.671 453.028 105.721 452.434 105.821 C 451.841 105.921 451.281 106.088 450.754 106.321 C 450.221 106.561 449.768 106.871 449.394 107.251 C 449.021 107.638 448.834 108.114 448.834 108.681 C 448.834 109.094 449.041 109.444 449.454 109.731 C 449.861 110.011 450.338 110.238 450.884 110.411 C 451.431 110.584 451.984 110.718 452.544 110.811 C 453.098 110.904 453.521 110.978 453.814 111.031 C 454.268 111.118 454.848 111.231 455.554 111.371 C 456.254 111.504 456.931 111.704 457.584 111.971 C 458.244 112.238 458.811 112.568 459.284 112.961 C 459.758 113.348 459.994 113.844 459.994 114.451 C 459.994 115.124 459.731 115.688 459.204 116.141 C 458.671 116.594 458.038 116.958 457.304 117.231 C 456.564 117.504 455.794 117.701 454.994 117.821 C 454.188 117.941 453.521 118.001 452.994 118.001 C 451.901 118.001 450.818 117.924 449.744 117.771 C 448.664 117.618 447.604 117.358 446.564 116.991 C 446.438 116.938 446.228 116.851 445.934 116.731 C 445.648 116.611 445.344 116.484 445.024 116.351 C 444.704 116.211 444.408 116.088 444.134 115.981 C 443.861 115.868 443.688 115.811 443.614 115.811 C 443.648 115.798 443.774 115.688 443.994 115.481 C 444.214 115.281 444.448 115.058 444.694 114.811 C 444.941 114.571 445.164 114.341 445.364 114.121 C 445.564 113.901 445.674 113.764 445.694 113.711 C 446.621 114.404 447.654 114.914 448.794 115.241 C 449.934 115.568 451.078 115.731 452.224 115.731 C 452.351 115.731 452.598 115.718 452.964 115.691 C 453.331 115.664 453.711 115.614 454.104 115.541 C 454.491 115.468 454.841 115.368 455.154 115.241 C 455.461 115.114 455.614 114.951 455.614 114.751 C 455.614 114.458 455.361 114.221 454.854 114.041 C 454.341 113.854 453.698 113.681 452.924 113.521 C 452.151 113.354 451.318 113.171 450.424 112.971 C 449.531 112.771 448.698 112.511 447.924 112.191 C 447.144 111.871 446.501 111.474 445.994 111.001 C 445.481 110.528 445.224 109.918 445.224 109.171 C 445.224 108.078 445.521 107.144 446.114 106.371 C 446.708 105.591 447.451 104.961 448.344 104.481 C 449.238 103.994 450.204 103.644 451.244 103.431 C 452.284 103.211 453.258 103.101 454.164 103.101 C 454.918 103.101 455.638 103.161 456.324 103.281 C 457.018 103.394 457.631 103.608 458.164 103.921 C 458.691 104.228 459.114 104.654 459.434 105.201 C 459.754 105.748 459.914 106.461 459.914 107.341 C 459.914 107.774 459.881 108.211 459.814 108.651 C 459.754 109.084 459.678 109.511 459.584 109.931 L 455.974 109.931 Z" white-space="pre"/>
</svg>
